<svg width="30" height="45" viewBox="0 0 30 45" fill="none" xmlns="http://www.w3.org/2000/svg">
<g clip-path="url(#clip0_80_3206)">
<path d="M15 22.5C15 20.5109 15.7902 18.6032 17.1967 17.1967C18.6032 15.7902 20.5109 15 22.5 15C24.4891 15 26.3968 15.7902 27.8033 17.1967C29.2098 18.6032 30 20.5109 30 22.5C30 24.4891 29.2098 26.3968 27.8033 27.8033C26.3968 29.2098 24.4891 30 22.5 30C20.5109 30 18.6032 29.2098 17.1967 27.8033C15.7902 26.3968 15 24.4891 15 22.5Z" fill="#1ABCFE"/>
<path d="M0 37.5C0 35.5109 0.790176 33.6032 2.1967 32.1967C3.60322 30.7902 5.51088 30 7.5 30H15V37.5C15 39.4891 14.2098 41.3968 12.8033 42.8033C11.3968 44.2098 9.48912 45 7.5 45C5.51088 45 3.60322 44.2098 2.1967 42.8033C0.790176 41.3968 0 39.4891 0 37.5H0Z" fill="#0ACF83"/>
<path d="M15 0V15H22.5C24.4891 15 26.3968 14.2098 27.8033 12.8033C29.2098 11.3968 30 9.48912 30 7.5C30 5.51088 29.2098 3.60322 27.8033 2.1967C26.3968 0.790176 24.4891 0 22.5 0L15 0Z" fill="#FF7262"/>
<path d="M0 7.5C0 9.48912 0.790176 11.3968 2.1967 12.8033C3.60322 14.2098 5.51088 15 7.5 15H15V0H7.5C5.51088 0 3.60322 0.790176 2.1967 2.1967C0.790176 3.60322 0 5.51088 0 7.5H0Z" fill="#F24E1E"/>
<path d="M0 22.5C0 24.4891 0.790176 26.3968 2.1967 27.8033C3.60322 29.2098 5.51088 30 7.5 30H15V15H7.5C5.51088 15 3.60322 15.7902 2.1967 17.1967C0.790176 18.6032 0 20.5109 0 22.5H0Z" fill="#A259FF"/>
</g>
<defs>
<clipPath id="clip0_80_3206">
<rect width="30" height="45" fill="white"/>
</clipPath>
</defs>
</svg>
