<?xml version="1.0" standalone="no"?>
<!DOCTYPE svg PUBLIC "-//W3C//DTD SVG 20010904//EN"
 "http://www.w3.org/TR/2001/REC-SVG-20010904/DTD/svg10.dtd">
<svg version="1.0" xmlns="http://www.w3.org/2000/svg"
 width="1339.000000pt" height="642.000000pt" viewBox="0 0 1339.000000 642.000000"
 preserveAspectRatio="xMidYMid meet">

<g transform="translate(0.000000,642.000000) scale(0.100000,-0.100000)"
fill="#000000" stroke="none">
<path d="M165 6353 c-34 -9 -81 -50 -99 -86 -14 -30 -16 -81 -16 -381 0 -346
0 -346 20 -326 19 19 33 20 330 20 297 0 311 -1 330 -20 20 -20 20 -20 20 326
0 386 -1 391 -68 442 l-35 27 -231 2 c-127 1 -240 -1 -251 -4z m178 -271 c20
-20 26 -34 20 -48 -6 -16 -5 -17 9 -4 15 14 14 17 -5 38 -16 17 -18 25 -9 34
10 10 19 5 44 -20 l33 -32 -33 -32 c-30 -30 -34 -32 -46 -16 -12 16 -14 16
-29 0 -12 -11 -20 -13 -27 -6 -7 7 -4 16 10 29 l20 18 -21 23 c-12 12 -18 27
-14 33 10 17 19 13 48 -17z"/>
<path d="M12373 6200 c-22 -13 -36 -32 -44 -61 -10 -30 -20 -44 -40 -51 -17
-6 -33 -23 -44 -46 -9 -20 -21 -45 -26 -55 -6 -11 -9 -20 -7 -22 6 -6 126 -35
143 -35 12 0 15 5 11 16 -10 25 4 84 20 84 8 0 14 -8 14 -17 0 -11 3 -14 8 -7
4 6 17 14 29 18 37 12 71 45 78 75 8 38 -16 86 -55 106 -38 19 -48 19 -87 -5z
m128 -51 c5 -11 7 -28 4 -39 -8 -26 -95 -27 -95 -1 0 9 -3 25 -6 37 -5 19 -1
21 40 22 36 0 49 -4 57 -19z m-106 -24 c0 -22 -31 -33 -47 -17 -17 17 -1 44
24 40 15 -2 23 -10 23 -23z"/>
<path d="M12811 6167 c-61 -12 -125 -78 -139 -141 -27 -126 62 -239 187 -238
127 2 217 112 189 234 -23 105 -125 168 -237 145z m103 -99 c22 -30 20 -60 -4
-86 -40 -42 -120 -14 -120 43 0 39 28 65 70 65 29 0 43 -6 54 -22z m27 -167
c39 -40 37 -63 -6 -84 -69 -33 -185 -9 -185 38 0 22 32 58 60 68 8 3 34 6 58
6 35 1 49 -5 73 -28z"/>
<path d="M11893 6106 c-42 -19 -66 -58 -66 -106 0 -105 119 -156 194 -84 94
90 -10 243 -128 190z m87 -69 c0 -25 -35 -65 -47 -53 -4 4 -2 16 5 26 17 28
15 31 -13 24 -14 -3 -25 -2 -25 3 0 17 13 23 47 23 28 0 33 -4 33 -23z m-20
-82 c0 -8 -6 -15 -14 -15 -17 0 -28 14 -19 24 12 12 33 6 33 -9z"/>
<path d="M12228 6093 c-23 -28 -30 -43 -19 -43 6 0 11 7 11 15 0 7 8 18 17 24
10 5 15 12 12 15 -3 4 -13 -2 -21 -11z"/>
<path d="M2400 6025 c0 -43 4 -75 10 -75 6 0 10 32 10 75 0 43 -4 75 -10 75
-6 0 -10 -32 -10 -75z"/>
<path d="M1623 6030 c0 -36 2 -50 4 -32 2 17 2 47 0 65 -2 17 -4 3 -4 -33z"/>
<path d="M1870 6080 c0 -5 5 -10 10 -10 6 0 10 5 10 10 0 6 -4 10 -10 10 -5 0
-10 -4 -10 -10z"/>
<path d="M1300 6025 c0 -30 5 -55 10 -55 6 0 10 19 10 43 l0 42 28 -42 c15
-24 30 -43 35 -43 4 0 6 26 5 58 l-1 57 -6 -45 -6 -45 -25 42 c-35 60 -50 56
-50 -12z"/>
<path d="M2054 6066 c-7 -19 12 -46 32 -46 18 0 28 -20 16 -32 -8 -8 -16 -7
-27 2 -8 7 -19 10 -22 6 -9 -9 16 -26 38 -26 9 0 23 7 30 16 11 14 10 19 -9
34 -12 10 -28 20 -35 23 -9 4 -9 7 0 17 10 11 15 11 29 -1 15 -12 17 -12 12 1
-7 21 -57 25 -64 6z"/>
<path d="M2163 6025 c-12 -30 -17 -55 -12 -55 5 0 9 5 9 10 0 15 58 12 63 -2
2 -7 7 -10 10 -7 8 7 -28 102 -40 106 -6 2 -19 -21 -30 -52z m47 -7 c0 -5 -9
-8 -20 -8 -18 0 -19 3 -9 21 9 17 13 19 20 8 5 -8 9 -17 9 -21z"/>
<path d="M2267 6074 c-17 -17 -5 -43 23 -53 17 -5 30 -14 30 -20 0 -17 -20
-23 -36 -10 -8 6 -18 9 -21 5 -11 -10 19 -27 42 -24 32 4 32 46 1 58 -14 5
-26 16 -26 25 0 18 21 20 39 3 11 -11 13 -10 9 2 -5 16 -49 26 -61 14z"/>
<path d="M2501 6066 c-15 -18 -7 -34 25 -46 36 -14 31 -34 -7 -26 -27 5 -30 4
-19 -9 15 -18 42 -19 58 -3 20 20 13 39 -18 49 -16 6 -30 15 -30 19 0 17 21
21 37 8 14 -11 16 -11 11 2 -6 21 -42 24 -57 6z"/>
<path d="M1426 6044 c-19 -19 -20 -35 -3 -58 15 -21 58 -18 65 4 4 12 3 13
-10 2 -9 -7 -23 -10 -32 -6 -28 11 -17 24 19 24 19 0 35 4 35 9 0 14 -30 41
-45 41 -7 0 -21 -7 -29 -16z m54 -14 c0 -5 -11 -10 -25 -10 -14 0 -25 5 -25
10 0 6 11 10 25 10 14 0 25 -4 25 -10z"/>
<path d="M1526 6044 c-9 -8 -16 -22 -16 -29 0 -19 28 -45 49 -45 40 0 57 61
22 80 -27 14 -37 13 -55 -6z m54 -28 c0 -14 -4 -27 -9 -30 -15 -10 -41 5 -41
23 0 23 9 31 32 31 12 0 18 -7 18 -24z"/>
<path d="M1670 6046 c-28 -35 11 -93 48 -70 35 22 22 84 -18 84 -10 0 -23 -7
-30 -14z m57 -22 c3 -8 -2 -23 -11 -32 -15 -15 -17 -15 -32 0 -21 21 -11 48
16 48 11 0 23 -7 27 -16z"/>
<path d="M1772 6048 c-30 -30 -2 -85 38 -75 13 3 20 0 20 -9 0 -19 -28 -30
-43 -15 -17 17 -31 13 -17 -4 18 -22 57 -19 70 5 6 12 10 39 8 62 -3 37 -6 41
-34 44 -17 2 -36 -2 -42 -8z m55 -24 c3 -8 -2 -23 -11 -32 -16 -16 -18 -16
-31 1 -7 11 -11 25 -8 33 7 19 42 18 50 -2z"/>
<path d="M1870 6015 c0 -25 5 -45 10 -45 6 0 10 20 10 45 0 25 -4 45 -10 45
-5 0 -10 -20 -10 -45z"/>
<path d="M1922 6048 c-7 -7 -12 -21 -12 -33 0 -41 45 -60 70 -30 15 18 -1 20
-19 3 -10 -11 -15 -9 -26 5 -21 29 -8 50 28 43 25 -5 28 -4 17 9 -15 18 -42
19 -58 3z"/>
<path d="M2590 6026 c0 -39 14 -54 53 -54 25 0 27 3 27 44 0 24 -4 44 -10 44
-5 0 -10 -16 -10 -35 0 -28 -4 -35 -20 -35 -16 0 -20 7 -20 35 0 19 -4 35 -10
35 -5 0 -10 -15 -10 -34z"/>
<path d="M2700 6013 c0 -25 5 -43 11 -43 6 0 9 6 6 14 -3 7 1 26 9 41 8 15 14
28 14 29 0 1 -9 2 -20 2 -17 0 -20 -7 -20 -43z"/>
<path d="M10979 6020 c-7 -56 3 -85 30 -88 30 -3 51 14 51 43 0 29 -24 48 -49
40 -15 -4 -20 -1 -23 17 -3 17 -5 15 -9 -12z m61 -45 c0 -18 -5 -25 -19 -25
-11 0 -23 5 -26 10 -11 18 3 40 25 40 15 0 20 -7 20 -25z"/>
<path d="M10530 5994 c0 -45 -1 -46 -27 -39 -27 6 -27 6 -10 -12 27 -28 51 -6
55 51 2 27 -1 46 -7 46 -6 0 -11 -20 -11 -46z"/>
<path d="M10930 5985 c0 -30 5 -55 10 -55 6 0 10 25 10 55 0 30 -4 55 -10 55
-5 0 -10 -25 -10 -55z"/>
<path d="M10591 6011 c-7 -5 -13 -21 -13 -36 0 -15 6 -31 13 -36 18 -12 51 -7
56 7 2 7 -5 10 -20 7 -14 -3 -28 0 -31 6 -5 7 5 11 28 11 39 0 45 10 20 34
-17 18 -32 20 -53 7z m44 -21 c4 -6 -5 -10 -20 -10 -15 0 -24 4 -20 10 3 6 12
10 20 10 8 0 17 -4 20 -10z"/>
<path d="M10680 5999 c-11 -19 -5 -58 8 -60 4 -1 22 -3 40 -5 31 -2 32 -2 32
40 0 42 -1 43 -35 44 -25 1 -38 -4 -45 -19z m58 -27 c3 -16 -2 -22 -17 -22
-24 0 -35 15 -27 36 9 23 40 13 44 -14z"/>
<path d="M10791 5970 c2 -44 2 -44 8 -10 4 26 11 35 26 35 15 0 22 -9 27 -35
6 -32 6 -31 5 10 -2 44 -3 45 -34 45 -33 1 -33 0 -32 -45z"/>
<path d="M11091 6007 c-15 -15 -14 -52 2 -65 7 -6 26 -10 42 -8 27 3 30 7 33
43 2 38 2 39 -32 40 -19 1 -39 -4 -45 -10z m54 -32 c0 -13 -8 -21 -22 -23 -19
-3 -23 1 -23 23 0 22 4 26 23 23 14 -2 22 -10 22 -23z"/>
<path d="M11190 5974 c0 -24 5 -44 10 -44 6 0 10 14 10 30 0 18 6 33 15 36 23
9 18 19 -10 20 -23 2 -25 -1 -25 -42z"/>
<path d="M11261 6007 c-29 -29 0 -84 39 -72 14 4 20 2 20 -8 0 -19 -23 -28
-41 -16 -22 14 -33 11 -19 -6 18 -21 57 -19 70 4 5 11 10 39 10 63 0 43 -1 44
-34 45 -19 1 -39 -4 -45 -10z m54 -32 c0 -13 -8 -21 -22 -23 -19 -3 -23 1 -23
23 0 22 4 26 23 23 14 -2 22 -10 22 -23z"/>
<path d="M11366 6006 c-5 -10 -5 -30 0 -45 8 -21 16 -26 42 -26 32 -1 32 0 31
45 -2 44 -2 44 -8 10 -4 -26 -12 -36 -28 -38 -19 -3 -22 2 -25 35 -3 30 -6 34
-12 19z"/>
<path d="M11483 6012 c-11 -7 -16 -25 -14 -54 1 -19 31 -31 55 -22 25 9 19 22
-8 17 -13 -3 -27 0 -30 6 -5 7 5 11 28 11 39 0 45 10 20 34 -17 17 -33 20 -51
8z m42 -22 c4 -6 -5 -10 -20 -10 -15 0 -24 4 -20 10 3 6 12 10 20 10 8 0 17
-4 20 -10z"/>
<path d="M11570 5974 c0 -24 5 -44 10 -44 6 0 10 16 10 35 0 28 4 35 20 35 16
0 20 -7 20 -35 0 -19 5 -35 10 -35 14 0 12 66 -2 78 -7 5 -25 10 -40 10 -26 0
-28 -3 -28 -44z"/>
<path d="M12277 5919 c7 -7 15 -10 18 -7 3 3 -2 9 -12 12 -14 6 -15 5 -6 -5z"/>
<path d="M387 5400 c22 -45 27 -50 56 -48 l32 1 -32 4 c-43 6 -42 23 1 23 29
0 36 4 45 31 6 18 11 34 11 35 0 2 -31 4 -69 4 l-68 0 24 -50z"/>
<path d="M3485 5271 c-11 -5 -29 -19 -40 -31 -18 -20 -20 -38 -23 -174 -2
-137 -1 -154 18 -184 11 -18 32 -37 46 -42 15 -6 207 -10 474 -10 267 0 459 4
474 10 14 5 35 24 46 42 19 30 20 47 18 185 -3 152 -3 153 -31 180 l-27 28
-468 2 c-257 1 -476 -2 -487 -6z m253 -180 c3 -10 -2 -12 -22 -7 -33 8 -34 -1
-1 -14 18 -7 25 -17 25 -35 0 -21 -5 -25 -29 -25 -16 0 -35 7 -42 17 -13 15
-11 16 14 9 16 -4 27 -2 27 4 0 5 -7 10 -15 10 -17 0 -34 30 -28 48 7 17 65
11 71 -7z m90 -38 c4 -37 -20 -56 -55 -42 -17 6 -23 16 -23 37 0 37 8 44 45
40 26 -3 30 -8 33 -35z m140 24 c9 -7 16 -7 24 1 7 7 27 12 45 12 32 0 33 -1
33 -40 0 -28 -4 -40 -14 -40 -8 0 -21 -3 -29 -6 -8 -3 -22 2 -31 11 -9 9 -16
12 -16 6 0 -23 -29 -10 -32 14 -2 14 -7 26 -13 26 -5 0 -11 -12 -13 -26 -5
-36 -32 -32 -32 5 0 17 -4 30 -10 30 -5 0 -10 -13 -10 -30 0 -20 -5 -30 -15
-30 -11 0 -15 11 -15 40 l0 40 58 -1 c31 -1 63 -6 70 -12z m190 -29 c2 -29 0
-38 -12 -38 -11 0 -16 9 -16 30 0 17 -4 30 -10 30 -5 0 -10 -13 -10 -30 0 -20
-5 -30 -15 -30 -11 0 -15 11 -15 41 l0 40 38 -3 c35 -3 37 -5 40 -40z m98 5
c-1 -32 -5 -39 -26 -44 -37 -8 -60 7 -60 40 0 36 6 41 50 41 35 0 36 -1 36
-37z"/>
<path d="M4016 5063 c-12 -12 -6 -33 9 -33 8 0 15 6 15 14 0 17 -14 28 -24 19z"/>
<path d="M4196 5062 c-2 -4 -1 -14 4 -22 7 -11 12 -12 21 -3 6 6 8 16 5 22 -8
13 -23 14 -30 3z"/>
<path d="M52 2668 l3 -2513 23 -33 c48 -66 75 -72 322 -72 247 0 274 6 322 72
l23 33 3 2513 2 2512 -20 -20 c-19 -19 -33 -20 -330 -20 -297 0 -311 1 -330
20 l-20 20 2 -2512z m423 2076 c23 -28 34 -49 27 -52 -5 -4 -12 -18 -13 -32
-4 -23 -9 -25 -61 -28 l-58 -3 0 30 c0 16 -5 31 -12 33 -12 4 58 98 73 98 4 0
24 -21 44 -46z m-8 -407 c4 -8 15 -16 24 -20 13 -4 17 -19 18 -61 l0 -56 -79
0 -79 0 0 56 c1 42 5 57 18 61 9 4 20 12 24 20 4 7 21 13 37 13 16 0 33 -6 37
-13z m0 -442 c11 -4 24 -17 28 -28 12 -39 14 -67 4 -67 -5 0 -9 -6 -9 -14 0
-8 -8 -17 -17 -22 -26 -11 -73 -13 -73 -3 0 5 -7 9 -15 9 -8 0 -15 7 -15 15 0
8 -4 15 -9 15 -10 0 -8 28 4 65 11 35 50 46 102 30z m-16 -435 c10 -6 19 -17
19 -25 0 -8 7 -15 15 -15 12 0 15 -13 15 -55 l0 -55 -70 0 -70 0 0 55 c0 42 3
55 15 55 8 0 15 7 15 15 0 7 8 19 18 24 21 13 20 13 43 1z m19 -485 c0 -12 7
-28 15 -35 15 -12 21 -40 9 -40 -3 0 -15 10 -25 23 -20 22 -20 22 -7 0 7 -12
10 -24 8 -27 -8 -7 -109 -10 -116 -4 -9 10 15 48 31 48 12 0 13 4 4 19 -18 28
-4 54 26 49 14 -3 25 -1 25 5 0 5 7 4 15 -3 8 -7 15 -23 15 -35z m9 -451 c16
-14 31 -37 34 -51 9 -48 -50 -85 -72 -46 -9 17 -10 17 -28 0 -25 -22 -36 -21
-56 1 -16 18 -20 37 -18 90 l1 32 55 0 c45 0 60 -5 84 -26z m-31 -452 l3 -72
-51 0 -50 0 0 41 c0 39 2 41 25 37 22 -5 25 -2 25 27 0 36 7 47 30 43 11 -3
16 -20 18 -76z m52 -22 c0 -43 -3 -50 -20 -50 -17 0 -20 7 -20 50 0 43 3 50
20 50 17 0 20 -7 20 -50z m10 -659 l0 -59 -62 -4 c-97 -6 -98 -5 -98 63 l0 59
80 0 80 0 0 -59z m-54 -376 c4 -8 14 -15 24 -15 22 0 34 -28 20 -45 -8 -9 -8
-15 0 -20 15 -9 -8 -48 -25 -41 -7 2 -16 -2 -19 -10 -3 -8 -15 -14 -26 -14
-11 0 -23 6 -26 14 -3 8 -12 12 -19 10 -7 -3 -19 5 -26 17 -9 18 -9 24 0 27 8
3 9 8 1 17 -14 17 -2 45 20 45 10 0 20 7 24 15 3 8 15 15 26 15 11 0 23 -7 26
-15z"/>
<path d="M412 4693 c2 -10 10 -18 18 -18 8 0 16 8 18 18 2 12 -3 17 -18 17
-15 0 -20 -5 -18 -17z"/>
<path d="M428 4323 c7 -3 16 -2 19 1 4 3 -2 6 -13 5 -11 0 -14 -3 -6 -6z"/>
<path d="M412 3858 c-14 -14 2 -38 25 -38 8 0 11 -5 8 -11 -4 -6 -14 -8 -24
-4 -13 5 -14 4 -3 -6 10 -11 15 -10 29 4 15 15 15 17 -13 28 -27 12 -28 13 -6
17 12 2 20 8 17 13 -8 12 -19 11 -33 -3z"/>
<path d="M420 3440 c-17 -11 -8 -23 14 -18 9 2 12 8 8 15 -5 8 -13 9 -22 3z"/>
<path d="M460 2490 c0 -5 5 -10 10 -10 6 0 10 5 10 10 0 6 -4 10 -10 10 -5 0
-10 -4 -10 -10z"/>
<path d="M465 2440 c-3 -5 -1 -10 4 -10 6 0 11 5 11 10 0 6 -2 10 -4 10 -3 0
-8 -4 -11 -10z"/>
<path d="M400 1404 c0 -8 5 -12 10 -9 6 4 8 11 5 16 -9 14 -15 11 -15 -7z"/>
<path d="M458 1403 c7 -3 16 -2 19 1 4 3 -2 6 -13 5 -11 0 -14 -3 -6 -6z"/>
<path d="M385 1370 c-4 -6 5 -10 20 -10 15 0 24 4 20 10 -3 6 -12 10 -20 10
-8 0 -17 -4 -20 -10z"/>
<path d="M407 956 c-9 -22 19 -42 37 -26 19 15 10 40 -14 40 -10 0 -20 -6 -23
-14z"/>
<path d="M2845 5170 c-8 -14 3 -30 21 -30 8 0 14 9 14 20 0 21 -24 28 -35 10z"/>
<path d="M1520 5080 c0 -82 2 -90 19 -90 17 0 20 8 23 48 3 40 6 47 25 50 20
3 22 -2 25 -45 2 -36 7 -49 21 -51 14 -3 17 5 17 51 0 63 -15 82 -60 75 -27
-4 -30 -2 -30 24 0 21 -5 28 -20 28 -19 0 -20 -7 -20 -90z"/>
<path d="M1680 5081 l0 -89 51 0 c79 0 113 49 73 107 -13 18 -24 22 -50 19
-31 -4 -34 -2 -34 24 0 21 -5 28 -20 28 -18 0 -20 -7 -20 -89z m98 -17 c4 -25
-22 -49 -43 -40 -15 5 -21 47 -8 60 14 14 48 1 51 -20z"/>
<path d="M2360 5141 c0 -29 -1 -30 -36 -24 -44 7 -64 -13 -64 -62 0 -49 48
-83 77 -54 8 8 13 8 17 0 4 -6 14 -11 22 -11 11 0 14 18 14 90 0 73 -3 90 -15
90 -10 0 -15 -10 -15 -29z m-10 -66 c26 -31 -18 -71 -47 -42 -19 19 -8 57 16
57 10 0 24 -7 31 -15z"/>
<path d="M1050 5075 l0 -85 44 0 c49 0 93 29 97 65 8 62 -35 105 -106 105
l-35 0 0 -85z m90 35 c26 -26 25 -55 -2 -74 -37 -26 -46 -20 -50 35 -1 28 -1
53 1 55 10 10 32 3 51 -16z"/>
<path d="M2660 5153 c0 -4 12 -43 27 -86 24 -71 29 -78 51 -75 21 3 29 15 53
83 16 44 29 81 29 83 0 1 -9 2 -20 2 -16 0 -23 -13 -37 -60 -10 -33 -21 -60
-25 -60 -3 0 -15 26 -25 58 -12 35 -26 58 -36 60 -9 2 -17 0 -17 -5z"/>
<path d="M3047 5128 c-8 -29 10 -120 26 -130 20 -13 47 -9 47 6 0 8 -7 16 -15
20 -9 3 -15 18 -15 36 0 20 5 30 15 30 8 0 15 7 15 15 0 8 -7 15 -15 15 -8 0
-15 7 -15 15 0 23 -37 18 -43 -7z"/>
<path d="M1232 5108 c-18 -18 -15 -83 6 -100 10 -9 36 -15 65 -15 l47 0 0 62
0 61 -53 2 c-30 1 -59 -4 -65 -10z m82 -34 c7 -20 -10 -54 -28 -54 -21 0 -38
27 -31 50 8 24 50 28 59 4z"/>
<path d="M1390 5099 c-14 -26 0 -45 41 -54 47 -10 35 -28 -13 -20 l-43 7 19
-21 c22 -24 68 -28 86 -6 19 23 7 49 -28 60 -17 5 -32 12 -32 16 0 16 20 19
39 7 25 -15 39 -4 21 17 -19 23 -77 19 -90 -6z"/>
<path d="M1856 5104 c-22 -21 -20 -77 2 -97 25 -23 68 -21 92 3 41 41 13 110
-45 110 -18 0 -41 -7 -49 -16z m72 -47 c4 -33 -22 -47 -45 -24 -22 21 -8 59
20 55 16 -2 23 -11 25 -31z"/>
<path d="M2005 5097 c-21 -30 -19 -63 5 -87 23 -23 50 -26 68 -8 9 9 12 9 12
0 0 -7 9 -12 20 -12 18 0 20 7 20 64 l0 64 -55 1 c-45 0 -57 -4 -70 -22z m83
-33 c4 -25 -20 -47 -42 -38 -16 6 -22 45 -9 58 14 14 48 1 51 -20z"/>
<path d="M2160 5054 c0 -57 2 -64 20 -64 17 0 20 7 20 45 0 38 3 45 20 45 13
0 20 7 20 18 0 14 -9 18 -40 19 l-40 2 0 -65z"/>
<path d="M2842 5058 c2 -50 6 -63 21 -66 15 -3 17 5 17 62 0 60 -2 66 -20 66
-19 0 -21 -5 -18 -62z"/>
<path d="M2920 5105 c-17 -21 -5 -44 30 -56 42 -15 38 -31 -5 -23 -41 7 -48
-10 -11 -27 29 -14 72 -5 80 16 6 17 -2 45 -14 45 -5 0 -21 5 -36 10 -21 8
-24 14 -16 22 9 9 15 9 24 0 7 -7 20 -12 30 -12 16 0 17 3 8 20 -13 24 -71 28
-90 5z"/>
<path d="M3152 5108 c-18 -18 -15 -83 6 -100 10 -9 36 -15 65 -15 l47 0 0 62
0 61 -53 2 c-30 1 -59 -4 -65 -10z m82 -34 c7 -20 -10 -54 -28 -54 -21 0 -38
27 -31 50 8 24 50 28 59 4z"/>
<path d="M2477 5083 c-17 -16 -3 -23 46 -23 41 0 54 4 54 15 0 11 -12 15 -47
15 -26 0 -50 -3 -53 -7z"/>
<path d="M1069 4640 c-24 -19 -14 -19 1894 -22 1054 -2 1917 0 1917 4 0 4 -10
14 -22 22 -20 14 -216 16 -1894 16 -1846 0 -1872 0 -1895 -20z"/>
<path d="M5175 4638 l-26 -23 1920 0 c1057 0 1921 3 1921 7 0 4 -10 14 -22 22
-20 14 -216 16 -1895 16 l-1872 0 -26 -22z"/>
<path d="M9289 4640 c-24 -19 -14 -19 1899 -22 l1923 -3 -26 23 -26 22 -1873
0 c-1848 0 -1874 0 -1897 -20z"/>
<path d="M9720 4260 c-29 -29 -26 -74 6 -99 33 -26 55 -26 82 -3 32 26 37 63
12 95 -26 33 -71 36 -100 7z m84 -3 c26 -19 24 -67 -4 -89 -27 -22 -39 -22
-68 -2 -26 18 -29 60 -5 86 19 21 52 23 77 5z"/>
<path d="M9760 4233 c0 -6 -8 -14 -17 -16 -16 -4 -16 -5 -1 -6 9 0 19 -9 21
-18 4 -17 5 -17 6 0 0 9 9 17 19 18 13 0 14 2 2 6 -8 3 -18 11 -22 17 -6 8 -8
8 -8 -1z"/>
<path d="M5620 4243 c-46 -18 -54 -90 -14 -122 35 -27 65 -27 92 2 55 58 -4
148 -78 120z m68 -19 c34 -23 27 -83 -10 -104 -25 -13 -31 -13 -55 0 -38 21
-45 81 -11 104 12 9 29 16 38 16 9 0 26 -7 38 -16z"/>
<path d="M1773 4186 c3 -8 11 -32 18 -55 7 -23 18 -41 25 -41 12 0 50 97 41
106 -2 3 -12 -14 -22 -38 l-18 -43 -13 30 c-7 17 -13 36 -14 43 0 6 -5 12 -11
12 -6 0 -9 -6 -6 -14z"/>
<path d="M1890 4145 c0 -54 0 -55 30 -55 17 0 30 5 30 10 0 6 -10 10 -23 10
-30 0 -32 30 -3 31 20 0 20 1 -2 10 -29 11 -24 31 9 40 21 6 21 7 -8 8 l-33 1
0 -55z"/>
<path d="M1972 4145 c2 -61 18 -77 18 -17 l0 37 35 -40 34 -40 -1 60 c-1 41
-3 48 -5 23 -2 -21 -7 -38 -11 -38 -4 0 -17 16 -30 35 -12 19 -26 35 -31 35
-5 0 -9 -25 -9 -55z"/>
<path d="M2103 4188 c9 -8 18 -32 20 -58 l4 -45 1 47 c1 33 7 50 20 57 14 8 9
10 -22 11 -34 0 -37 -2 -23 -12z"/>
<path d="M2206 4168 c-24 -57 -28 -78 -17 -78 6 0 11 5 11 10 0 6 14 10 30 10
17 0 30 -4 30 -10 0 -5 4 -10 9 -10 5 0 0 25 -12 55 -11 30 -24 55 -29 55 -5
0 -15 -15 -22 -32z m34 -24 c0 -8 -7 -14 -15 -14 -17 0 -18 2 -9 24 7 18 24
12 24 -10z"/>
<path d="M2343 4193 c13 -3 17 -15 17 -54 0 -27 5 -49 10 -49 6 0 10 22 10 49
0 39 4 51 18 54 9 3 -3 5 -28 5 -25 0 -37 -2 -27 -5z"/>
<path d="M2434 4175 c-21 -33 -6 -72 31 -81 50 -13 86 53 49 90 -24 24 -61 20
-80 -9z m71 -30 c0 -25 -4 -31 -26 -33 -29 -3 -44 18 -33 50 4 14 13 18 32 16
23 -2 27 -8 27 -33z"/>
<path d="M2563 4188 c9 -8 18 -32 20 -58 l4 -45 1 47 c1 33 7 50 20 57 14 8 9
10 -22 11 -34 0 -37 -2 -23 -12z"/>
<path d="M2662 4148 c-11 -29 -18 -55 -15 -58 3 -3 8 1 10 8 5 14 63 17 63 2
0 -5 4 -10 9 -10 13 0 -22 103 -36 107 -6 2 -20 -20 -31 -49z m42 6 c9 -23 8
-24 -13 -24 -14 0 -18 5 -14 20 6 24 19 26 27 4z"/>
<path d="M2760 4145 c0 -52 1 -55 25 -55 14 0 25 5 25 10 0 6 -8 10 -18 10
-15 0 -18 8 -17 45 1 25 -2 45 -7 45 -4 0 -8 -25 -8 -55z"/>
<path d="M5880 4161 c0 -40 20 -71 45 -71 25 0 45 31 45 71 0 21 -4 39 -10 39
-5 0 -10 -20 -10 -45 0 -41 -2 -45 -25 -45 -23 0 -25 4 -25 45 0 25 -4 45 -10
45 -5 0 -10 -18 -10 -39z"/>
<path d="M6003 4193 c13 -3 17 -15 17 -54 0 -27 5 -49 10 -49 6 0 10 22 10 49
0 39 4 51 18 54 9 3 -3 5 -28 5 -25 0 -37 -2 -27 -5z"/>
<path d="M6090 4145 c0 -30 4 -55 8 -55 5 0 10 25 11 55 1 32 -3 55 -9 55 -6
0 -10 -24 -10 -55z"/>
<path d="M6130 4145 c0 -52 1 -55 25 -55 14 0 25 5 25 10 0 6 -7 10 -15 10
-11 0 -15 12 -15 45 0 25 -4 45 -10 45 -5 0 -10 -25 -10 -55z"/>
<path d="M6213 4145 c0 -33 2 -45 4 -27 2 18 2 45 0 60 -2 15 -4 0 -4 -33z"/>
<path d="M6250 4145 c0 -54 1 -55 28 -55 52 0 81 59 46 94 -8 9 -29 16 -45 16
-29 0 -29 -1 -29 -55z m69 18 c13 -24 -4 -53 -33 -53 -18 0 -23 5 -21 23 1 12
3 28 4 35 2 18 39 15 50 -5z"/>
<path d="M6378 4148 c-10 -29 -15 -54 -11 -57 3 -4 8 0 10 7 6 15 45 16 61 0
16 -16 15 -1 -4 55 -9 26 -21 47 -27 47 -7 0 -20 -24 -29 -52z m37 -16 c-22
-5 -27 1 -19 23 7 17 8 17 21 -1 12 -17 12 -19 -2 -22z"/>
<path d="M6480 4145 c0 -51 2 -55 23 -55 33 0 67 28 67 55 0 32 -25 55 -61 55
-29 0 -29 -1 -29 -55z m65 0 c0 -23 -5 -31 -21 -33 -17 -2 -22 3 -26 28 -5 35
-1 42 27 38 15 -2 20 -10 20 -33z"/>
<path d="M6630 4145 c0 -53 1 -55 28 -55 49 0 55 14 43 103 -1 4 -17 7 -36 7
l-35 0 0 -55z m55 24 c0 -7 -8 -15 -17 -17 -18 -3 -25 18 -11 32 10 10 28 1
28 -15z m10 -44 c0 -5 -10 -11 -22 -13 -16 -2 -23 2 -23 13 0 11 7 15 23 13
12 -2 22 -7 22 -13z"/>
<path d="M6737 4193 c-9 -17 -7 -103 3 -103 5 0 10 9 10 20 0 11 4 20 10 20 5
0 14 -9 20 -20 6 -11 15 -20 21 -20 6 0 6 7 -1 20 -7 14 -7 25 1 38 18 29 4
52 -30 52 -16 0 -32 -3 -34 -7z m51 -26 c2 -12 -3 -17 -17 -17 -12 0 -21 6
-21 13 0 31 32 34 38 4z"/>
<path d="M6842 4154 c6 -90 72 -89 74 2 l2 49 -7 -45 c-5 -37 -10 -46 -28 -48
-23 -3 -28 11 -24 60 1 9 -3 19 -9 23 -8 5 -10 -8 -8 -41z"/>
<path d="M6953 4193 c13 -3 17 -15 17 -54 0 -27 5 -49 10 -49 6 0 10 22 10 49
0 39 4 51 18 54 9 3 -3 5 -28 5 -25 0 -37 -2 -27 -5z"/>
<path d="M7057 4153 c-20 -56 -21 -71 -5 -55 7 7 21 12 33 12 12 0 26 -5 33
-12 16 -16 15 -1 -4 55 -9 26 -21 47 -28 47 -7 0 -20 -21 -29 -47z m43 -9 c0
-8 -7 -14 -15 -14 -17 0 -18 2 -9 24 7 18 24 12 24 -10z"/>
<path d="M10006 4184 c-39 -39 1 -106 52 -88 16 6 28 18 30 32 3 18 -1 22 -25
21 -17 -1 -21 -3 -10 -6 26 -7 21 -33 -8 -33 -32 0 -49 31 -31 55 10 14 21 17
46 12 28 -6 31 -5 20 8 -16 20 -54 19 -74 -1z"/>
<path d="M10132 4148 c-11 -29 -18 -55 -15 -58 3 -3 8 1 10 8 3 6 17 12 33 12
16 0 30 -6 33 -12 2 -7 7 -10 10 -7 9 7 -28 102 -41 107 -6 2 -19 -21 -30 -50z
m41 2 c4 -15 0 -20 -13 -20 -13 0 -17 5 -13 20 3 11 9 20 13 20 4 0 10 -9 13
-20z"/>
<path d="M10237 4194 c-17 -17 -5 -43 23 -53 17 -5 30 -15 30 -22 0 -7 -10 -9
-30 -5 -17 3 -30 1 -30 -4 0 -12 45 -24 59 -15 20 12 12 45 -14 57 -14 6 -25
14 -25 18 0 15 14 19 32 9 16 -9 19 -8 16 3 -5 14 -49 23 -61 12z"/>
<path d="M10333 4193 c13 -3 17 -15 17 -54 0 -27 5 -49 10 -49 6 0 10 20 10
45 0 31 5 47 18 54 13 8 7 10 -28 10 -25 -1 -37 -3 -27 -6z"/>
<path d="M10438 4189 c-38 -22 -10 -99 35 -99 28 0 56 36 50 62 -12 47 -44 61
-85 37z m67 -28 c9 -28 -5 -51 -31 -51 -26 0 -47 30 -38 54 9 23 61 21 69 -3z"/>
<path d="M10557 4193 c-16 -15 -6 -44 18 -53 33 -13 33 -34 0 -27 -16 3 -24 0
-22 -7 5 -17 42 -19 56 -3 16 20 4 44 -25 51 -13 4 -24 11 -24 16 0 15 21 23
33 11 17 -17 31 -13 17 4 -13 16 -42 20 -53 8z"/>
<path d="M9655 4173 c11 -3 27 -10 35 -17 13 -10 13 -9 1 7 -7 9 -23 16 -35
16 -20 -1 -20 -2 -1 -6z"/>
<path d="M1312 4099 c-2 -67 8 -91 41 -102 25 -9 21 7 -5 18 -16 7 -24 20 -26
43 -3 32 -3 32 43 32 38 0 47 -4 55 -22 7 -18 9 -12 9 29 1 28 -3 54 -7 57 -5
3 -6 -8 -4 -25 4 -29 4 -29 -46 -29 -50 0 -51 1 -55 33 -2 17 -5 2 -5 -34z"/>
<path d="M1579 4091 c-7 -77 -21 -91 -96 -91 -46 0 -55 3 -63 23 l-9 22 0 -22
c-1 -12 -9 -24 -18 -26 -10 -3 21 -5 69 -6 114 -1 134 17 126 120 -3 40 -4 39
-9 -20z"/>
<path d="M5445 4143 c-35 -9 -68 -23 -64 -28 3 -2 23 2 44 10 40 13 55 12 55
-5 0 -5 -21 -12 -46 -16 -26 -4 -41 -10 -34 -14 19 -12 85 16 85 36 0 19 -11
24 -40 17z"/>
<path d="M9638 4073 c7 -3 16 -2 19 1 4 3 -2 6 -13 5 -11 0 -14 -3 -6 -6z"/>
<path d="M9678 4073 c7 -3 16 -2 19 1 4 3 -2 6 -13 5 -11 0 -14 -3 -6 -6z"/>
<path d="M5393 4059 c-21 -21 5 -39 53 -39 37 0 44 3 44 20 0 11 -6 20 -14 20
-7 0 -26 3 -42 6 -17 3 -34 0 -41 -7z m56 -5 c44 -9 39 -24 -8 -24 -38 0 -57
10 -44 24 8 8 13 8 52 0z"/>
<path d="M5397 4003 c-3 -5 17 -8 43 -8 26 0 46 3 43 8 -2 4 -22 7 -43 7 -21
0 -41 -3 -43 -7z"/>
<path d="M5387 3968 c2 -5 24 -8 48 -8 24 0 46 3 48 8 3 4 -19 7 -48 7 -29 0
-51 -3 -48 -7z"/>
<path d="M1280 3731 c0 -5 -9 -13 -20 -16 -11 -4 -27 -17 -36 -30 -19 -29 -5
-61 32 -75 15 -6 24 -17 24 -32 0 -17 -3 -19 -12 -10 -16 16 -48 15 -48 -1 0
-16 32 -47 47 -47 6 0 14 -6 17 -12 5 -10 7 -10 12 0 3 6 12 12 19 12 8 0 22
11 33 25 26 32 18 65 -20 79 -21 8 -28 17 -27 36 0 14 3 19 6 13 2 -7 16 -13
29 -13 34 0 31 27 -6 48 -16 9 -30 20 -30 25 0 4 -4 7 -10 7 -5 0 -10 -4 -10
-9z m-4 -78 c-10 -10 -19 5 -10 18 6 11 8 11 12 0 2 -7 1 -15 -2 -18z m44 -78
c0 -8 -4 -15 -10 -15 -5 0 -10 7 -10 15 0 8 5 15 10 15 6 0 10 -7 10 -15z"/>
<path d="M5390 3731 c0 -5 -9 -13 -20 -16 -11 -4 -27 -17 -36 -30 -19 -29 -5
-61 32 -75 15 -6 24 -17 24 -32 0 -17 -3 -19 -12 -10 -7 7 -20 12 -30 12 -28
0 -22 -35 10 -51 15 -8 31 -18 35 -24 6 -6 10 -6 14 3 2 6 11 12 18 12 8 0 22
11 33 25 26 32 18 65 -20 79 -21 8 -28 17 -27 36 0 14 3 19 6 13 6 -15 53 -18
53 -3 0 6 -9 18 -19 28 -49 43 -61 50 -61 33z m0 -73 c0 -16 -3 -19 -11 -11
-6 6 -8 16 -5 22 11 17 16 13 16 -11z m35 -77 c3 -5 1 -12 -5 -16 -5 -3 -10 1
-10 9 0 18 6 21 15 7z"/>
<path d="M9500 3731 c0 -5 -9 -13 -20 -16 -11 -4 -27 -17 -36 -30 -19 -29 -5
-61 32 -75 15 -6 24 -17 24 -32 0 -17 -3 -19 -12 -10 -16 16 -48 15 -48 -1 0
-16 32 -47 47 -47 6 0 14 -6 17 -12 5 -10 7 -10 12 0 3 6 12 12 19 12 8 0 22
11 33 25 26 32 18 65 -20 79 -21 8 -28 17 -27 36 0 14 3 19 6 13 2 -7 16 -13
30 -13 33 0 27 30 -10 48 -15 7 -27 17 -27 23 0 5 -4 9 -10 9 -5 0 -10 -4 -10
-9z m0 -73 c0 -16 -3 -19 -11 -11 -6 6 -8 16 -5 22 11 17 16 13 16 -11z m40
-83 c0 -8 -4 -15 -10 -15 -5 0 -10 7 -10 15 0 8 5 15 10 15 6 0 10 -7 10 -15z"/>
<path d="M1485 3705 c-21 -20 -25 -34 -25 -80 0 -46 4 -60 25 -80 31 -32 69
-32 102 1 23 23 25 31 21 86 -4 48 -9 65 -27 79 -32 26 -67 24 -96 -6z m79
-41 c17 -45 2 -94 -29 -94 -24 0 -35 17 -35 55 0 38 11 55 35 55 13 0 26 -7
29 -16z"/>
<path d="M5596 3707 c-22 -22 -26 -35 -26 -82 0 -46 4 -60 25 -80 31 -32 69
-32 102 1 23 23 25 31 21 85 -5 66 -18 85 -65 95 -26 5 -37 1 -57 -19z m68
-33 c31 -31 18 -104 -19 -104 -25 0 -35 17 -35 60 0 24 21 60 35 60 2 0 11 -7
19 -16z"/>
<path d="M9705 3705 c-21 -20 -25 -34 -25 -80 0 -46 4 -60 25 -80 13 -14 36
-25 50 -25 14 0 37 11 50 25 21 20 25 34 25 80 0 46 -4 60 -25 80 -13 14 -36
25 -50 25 -14 0 -37 -11 -50 -25z m69 -31 c31 -31 18 -104 -19 -104 -25 0 -35
17 -35 60 0 24 21 60 35 60 2 0 11 -7 19 -16z"/>
<path d="M1754 3710 c-33 -13 -54 -50 -54 -95 1 -60 37 -95 98 -95 33 0 82 34
82 56 0 18 -29 18 -54 -1 -29 -22 -53 -18 -72 10 -34 51 13 113 61 81 33 -21
69 -21 61 0 -3 9 -6 17 -6 20 0 8 -60 34 -77 33 -10 0 -28 -4 -39 -9z"/>
<path d="M1943 3685 c-32 -32 -35 -39 -30 -78 10 -71 70 -104 141 -77 27 10
56 56 56 90 0 31 -29 76 -57 89 -43 20 -73 13 -110 -24z m109 -29 c24 -35 -3
-96 -42 -96 -54 0 -70 94 -20 113 19 7 53 -2 62 -17z"/>
<path d="M2157 3712 c-14 -3 -17 -18 -17 -98 0 -87 1 -94 20 -94 16 0 20 7 20
35 0 32 2 35 30 35 42 0 84 42 74 73 -3 12 -11 27 -16 34 -9 11 -80 21 -111
15z m78 -57 c0 -14 -8 -21 -27 -23 -24 -3 -28 0 -28 23 0 23 4 26 28 23 19 -2
27 -9 27 -23z"/>
<path d="M5864 3710 c-33 -13 -54 -50 -54 -95 1 -60 37 -95 98 -95 33 0 82 34
82 56 0 19 -37 18 -56 -1 -23 -22 -51 -18 -70 10 -34 51 13 113 61 81 33 -21
69 -21 61 0 -3 9 -6 17 -6 20 0 8 -60 34 -77 33 -10 0 -28 -4 -39 -9z"/>
<path d="M6074 3709 c-44 -22 -66 -88 -43 -132 48 -94 189 -61 189 43 0 71
-81 120 -146 89z m74 -45 c44 -31 22 -104 -32 -104 -45 0 -63 77 -24 104 12 9
25 16 28 16 3 0 16 -7 28 -16z"/>
<path d="M6250 3619 c0 -92 1 -99 20 -99 16 0 20 7 20 35 0 32 3 35 29 35 58
0 96 60 63 100 -13 16 -31 21 -74 24 l-58 3 0 -98z m95 36 c0 -14 -8 -21 -27
-23 -24 -3 -28 0 -28 23 0 23 4 26 28 23 19 -2 27 -9 27 -23z"/>
<path d="M9980 3713 c-40 -15 -60 -46 -60 -94 0 -40 4 -51 31 -73 19 -16 43
-26 63 -26 36 0 86 33 86 56 0 19 -37 18 -56 -1 -23 -22 -51 -18 -70 10 -19
29 -12 70 15 84 20 11 61 4 61 -10 0 -5 12 -9 26 -9 20 0 25 4 20 16 -3 9 -6
17 -6 20 0 2 -13 10 -30 19 -30 15 -53 18 -80 8z"/>
<path d="M10185 3706 c-93 -40 -57 -185 46 -186 76 0 121 78 84 145 -27 52
-73 66 -130 41z m73 -42 c44 -31 22 -104 -32 -104 -45 0 -63 77 -24 104 12 9
25 16 28 16 3 0 16 -7 28 -16z"/>
<path d="M10365 3712 c-3 -3 -5 -47 -5 -99 0 -86 1 -93 20 -93 16 0 20 7 20
35 0 32 2 35 30 35 41 0 84 42 75 73 -4 12 -13 28 -20 36 -13 13 -109 24 -120
13z m90 -57 c0 -14 -8 -21 -27 -23 -24 -3 -28 0 -28 23 0 23 4 26 28 23 19 -2
27 -9 27 -23z"/>
<path d="M9490 3246 c0 -2 7 -7 16 -10 8 -3 12 -2 9 4 -6 10 -25 14 -25 6z"/>
<path d="M1890 3225 c0 -9 6 -12 15 -9 8 4 15 7 15 9 0 2 -7 5 -15 9 -9 3 -15
0 -15 -9z"/>
<path d="M10770 3225 c0 -9 6 -12 15 -9 8 4 15 7 15 9 0 2 -7 5 -15 9 -9 3
-15 0 -15 -9z"/>
<path d="M1380 3226 c0 -2 9 -6 20 -9 11 -3 18 -1 14 4 -5 9 -34 13 -34 5z"/>
<path d="M1628 3223 c7 -3 16 -2 19 1 4 3 -2 6 -13 5 -11 0 -14 -3 -6 -6z"/>
<path d="M1960 3226 c0 -2 11 -6 25 -8 13 -3 22 -1 19 3 -5 9 -44 13 -44 5z"/>
<path d="M2045 3220 c-3 -6 1 -7 9 -4 18 7 21 14 7 14 -6 0 -13 -4 -16 -10z"/>
<path d="M2370 3226 c0 -2 7 -7 16 -10 8 -3 12 -2 9 4 -6 10 -25 14 -25 6z"/>
<path d="M2598 3223 c7 -3 16 -2 19 1 4 3 -2 6 -13 5 -11 0 -14 -3 -6 -6z"/>
<path d="M2698 3223 c7 -3 16 -2 19 1 4 3 -2 6 -13 5 -11 0 -14 -3 -6 -6z"/>
<path d="M2788 3223 c7 -3 16 -2 19 1 4 3 -2 6 -13 5 -11 0 -14 -3 -6 -6z"/>
<path d="M5468 3223 c7 -3 16 -2 19 1 4 3 -2 6 -13 5 -11 0 -14 -3 -6 -6z"/>
<path d="M5578 3223 c7 -3 16 -2 19 1 4 3 -2 6 -13 5 -11 0 -14 -3 -6 -6z"/>
<path d="M5668 3223 c7 -3 16 -2 19 1 4 3 -2 6 -13 5 -11 0 -14 -3 -6 -6z"/>
<path d="M5741 3214 c0 -11 3 -14 6 -6 3 7 2 16 -1 19 -3 4 -6 -2 -5 -13z"/>
<path d="M5846 3221 c-3 -4 6 -6 19 -3 14 2 25 6 25 8 0 8 -39 4 -44 -5z"/>
<path d="M5988 3223 c7 -3 16 -2 19 1 4 3 -2 6 -13 5 -11 0 -14 -3 -6 -6z"/>
<path d="M6715 3220 c-3 -6 1 -7 9 -4 18 7 21 14 7 14 -6 0 -13 -4 -16 -10z"/>
<path d="M6816 3221 c-4 -5 3 -7 14 -4 23 6 26 13 6 13 -8 0 -17 -4 -20 -9z"/>
<path d="M9578 3223 c7 -3 16 -2 19 1 4 3 -2 6 -13 5 -11 0 -14 -3 -6 -6z"/>
<path d="M9738 3223 c7 -3 16 -2 19 1 4 3 -2 6 -13 5 -11 0 -14 -3 -6 -6z"/>
<path d="M9820 3226 c0 -2 7 -7 16 -10 8 -3 12 -2 9 4 -6 10 -25 14 -25 6z"/>
<path d="M9885 3220 c-3 -6 1 -7 9 -4 18 7 21 14 7 14 -6 0 -13 -4 -16 -10z"/>
<path d="M10128 3223 c7 -3 16 -2 19 1 4 3 -2 6 -13 5 -11 0 -14 -3 -6 -6z"/>
<path d="M10260 3226 c0 -2 9 -6 20 -9 11 -3 18 -1 14 4 -5 9 -34 13 -34 5z"/>
<path d="M10508 3223 c7 -3 16 -2 19 1 4 3 -2 6 -13 5 -11 0 -14 -3 -6 -6z"/>
<path d="M10840 3226 c0 -2 11 -6 25 -8 13 -3 22 -1 19 3 -5 9 -44 13 -44 5z"/>
<path d="M10925 3220 c-3 -6 1 -7 9 -4 18 7 21 14 7 14 -6 0 -13 -4 -16 -10z"/>
<path d="M1353 3185 c0 -22 2 -30 4 -17 2 12 2 30 0 40 -3 9 -5 -1 -4 -23z"/>
<path d="M6766 3205 c4 -8 8 -15 10 -15 2 0 4 7 4 15 0 8 -4 15 -10 15 -5 0
-7 -7 -4 -15z"/>
<path d="M6871 3204 c0 -11 3 -14 6 -6 3 7 2 16 -1 19 -3 4 -6 -2 -5 -13z"/>
<path d="M9650 3211 c0 -6 4 -13 10 -16 6 -3 7 1 4 9 -7 18 -14 21 -14 7z"/>
<path d="M10233 3185 c0 -22 2 -30 4 -17 2 12 2 30 0 40 -3 9 -5 -1 -4 -23z"/>
<path d="M5321 3194 c0 -11 3 -14 6 -6 3 7 2 16 -1 19 -3 4 -6 -2 -5 -13z"/>
<path d="M5961 3195 c-1 -25 17 -45 39 -44 10 0 9 3 -5 8 -11 4 -23 19 -26 32
-6 21 -7 21 -8 4z"/>
<path d="M6235 3200 c-3 -5 -1 -10 4 -10 6 0 11 5 11 10 0 6 -2 10 -4 10 -3 0
-8 -4 -11 -10z"/>
<path d="M9781 3184 c0 -11 3 -14 6 -6 3 7 2 16 -1 19 -3 4 -6 -2 -5 -13z"/>
<path d="M1762 3170 c0 -14 2 -19 5 -12 2 6 2 18 0 25 -3 6 -5 1 -5 -13z"/>
<path d="M1940 3184 c0 -17 27 -37 42 -31 8 4 7 6 -4 6 -9 1 -22 9 -27 19 -6
9 -11 12 -11 6z"/>
<path d="M5701 3174 c0 -11 3 -14 6 -6 3 7 2 16 -1 19 -3 4 -6 -2 -5 -13z"/>
<path d="M6026 3175 c-3 -8 -1 -15 4 -15 6 0 10 7 10 15 0 8 -2 15 -4 15 -2 0
-6 -7 -10 -15z"/>
<path d="M6672 3170 c0 -14 2 -19 5 -12 2 6 2 18 0 25 -3 6 -5 1 -5 -13z"/>
<path d="M10642 3170 c0 -14 2 -19 5 -12 2 6 2 18 0 25 -3 6 -5 1 -5 -13z"/>
<path d="M10820 3184 c0 -17 27 -37 42 -31 8 4 7 6 -4 6 -9 1 -22 9 -27 19 -6
9 -11 12 -11 6z"/>
<path d="M1618 3158 c5 -5 16 -8 23 -6 8 3 3 7 -10 11 -17 4 -21 3 -13 -5z"/>
<path d="M1897 3159 c7 -7 15 -10 18 -7 3 3 -2 9 -12 12 -14 6 -15 5 -6 -5z"/>
<path d="M5458 3158 c5 -5 16 -8 23 -6 8 3 3 7 -10 11 -17 4 -21 3 -13 -5z"/>
<path d="M5848 3158 c5 -5 16 -8 23 -6 8 3 3 7 -10 11 -17 4 -21 3 -13 -5z"/>
<path d="M6198 3158 c5 -5 16 -8 23 -6 8 3 3 7 -10 11 -17 4 -21 3 -13 -5z"/>
<path d="M6287 3158 c2 -5 10 -8 18 -8 8 0 16 3 18 8 3 4 -5 7 -18 7 -13 0
-21 -3 -18 -7z"/>
<path d="M6395 3160 c-16 -7 -17 -9 -3 -9 9 -1 20 4 23 9 7 11 7 11 -20 0z"/>
<path d="M6818 3158 c5 -5 16 -8 23 -6 8 3 3 7 -10 11 -17 4 -21 3 -13 -5z"/>
<path d="M6918 3158 c5 -5 16 -8 23 -6 8 3 3 7 -10 11 -17 4 -21 3 -13 -5z"/>
<path d="M9658 3158 c5 -5 16 -8 23 -6 8 3 3 7 -10 11 -17 4 -21 3 -13 -5z"/>
<path d="M10035 3160 c-16 -7 -17 -9 -3 -9 9 -1 20 4 23 9 7 11 7 11 -20 0z"/>
<path d="M10498 3158 c5 -5 16 -8 23 -6 8 3 3 7 -10 11 -17 4 -21 3 -13 -5z"/>
<path d="M10777 3159 c7 -7 15 -10 18 -7 3 3 -2 9 -12 12 -14 6 -15 5 -6 -5z"/>
<path d="M1828 3153 c7 -3 16 -2 19 1 4 3 -2 6 -13 5 -11 0 -14 -3 -6 -6z"/>
<path d="M2268 3153 c7 -3 16 -2 19 1 4 3 -2 6 -13 5 -11 0 -14 -3 -6 -6z"/>
<path d="M2698 3153 c7 -3 16 -2 19 1 4 3 -2 6 -13 5 -11 0 -14 -3 -6 -6z"/>
<path d="M2788 3153 c7 -3 16 -2 19 1 4 3 -2 6 -13 5 -11 0 -14 -3 -6 -6z"/>
<path d="M6628 3153 c7 -3 16 -2 19 1 4 3 -2 6 -13 5 -11 0 -14 -3 -6 -6z"/>
<path d="M9578 3153 c7 -3 16 -2 19 1 4 3 -2 6 -13 5 -11 0 -14 -3 -6 -6z"/>
<path d="M9808 3153 c6 -2 18 -2 25 0 6 3 1 5 -13 5 -14 0 -19 -2 -12 -5z"/>
<path d="M10708 3153 c7 -3 16 -2 19 1 4 3 -2 6 -13 5 -11 0 -14 -3 -6 -6z"/>
<path d="M1069 2640 c-24 -19 -14 -19 1894 -22 1054 -2 1917 0 1917 4 0 4 -10
14 -22 22 -20 14 -216 16 -1894 16 -1846 0 -1872 0 -1895 -20z"/>
<path d="M5179 2640 c-24 -19 -14 -19 1894 -22 1054 -2 1917 0 1917 4 0 4 -10
14 -22 22 -20 14 -216 16 -1894 16 -1846 0 -1872 0 -1895 -20z"/>
<path d="M9289 2640 c-24 -19 -14 -19 1899 -22 l1923 -3 -26 23 -26 22 -1873
0 c-1848 0 -1874 0 -1897 -20z"/>
<path d="M1430 2306 c0 -2 9 -6 20 -9 11 -3 18 -1 14 4 -5 9 -34 13 -34 5z"/>
<path d="M5402 2248 c-7 -7 -11 -32 -10 -57 l1 -46 6 50 6 50 65 6 65 6 -60 1
c-36 1 -66 -3 -73 -10z"/>
<path d="M5551 2245 c13 -14 15 -34 11 -118 -2 -60 -9 -105 -16 -109 -18 -12
-121 -9 -139 5 -11 8 -17 31 -20 67 l-3 55 -2 -57 c-2 -49 1 -59 20 -72 27
-19 138 -22 156 -4 7 7 12 40 12 78 0 73 8 112 21 104 5 -3 1 9 -9 25 -9 17
-24 33 -32 36 -12 5 -12 3 1 -10z"/>
<path d="M5653 2248 c-24 -32 -24 -41 0 -19 15 14 27 26 27 28 0 8 -19 2 -27
-9z"/>
<path d="M9759 2233 l-24 -28 28 24 c15 14 27 26 27 28 0 8 -8 1 -31 -24z"/>
<path d="M9570 2233 c-30 -3 -60 -9 -67 -15 -9 -7 -12 -33 -11 -77 l2 -66 5
70 6 70 65 6 c93 8 100 3 102 -84 l2 -72 3 70 c4 62 2 72 -18 87 -11 10 -24
17 -28 16 -3 -1 -31 -3 -61 -5z"/>
<path d="M5478 2213 c28 -2 52 -9 52 -15 0 -7 -20 -9 -55 -6 -33 3 -52 1 -47
-4 5 -5 31 -8 58 -6 36 2 49 7 49 18 0 11 -13 15 -55 16 l-55 1 53 -4z"/>
<path d="M1358 2193 c7 -3 16 -2 19 1 4 3 -2 6 -13 5 -11 0 -14 -3 -6 -6z"/>
<path d="M1770 2161 c0 -62 55 -98 80 -52 13 25 13 91 0 91 -5 0 -10 -21 -10
-46 0 -41 -2 -45 -22 -42 -19 2 -24 10 -26 46 -4 53 -22 56 -22 3z"/>
<path d="M1893 2189 c-16 -16 -5 -39 23 -50 32 -12 31 -33 -1 -26 -16 3 -24 0
-22 -7 5 -16 36 -20 52 -6 23 19 18 36 -15 50 -16 7 -30 16 -30 21 0 15 22 21
33 10 17 -17 31 -13 17 4 -15 18 -41 20 -57 4z"/>
<path d="M1980 2164 c0 -66 37 -96 74 -58 18 17 22 94 6 94 -5 0 -10 -21 -10
-46 0 -41 -2 -45 -22 -42 -19 2 -24 10 -26 46 -4 51 -22 57 -22 6z"/>
<path d="M2116 2168 c-24 -57 -28 -78 -17 -78 6 0 11 5 11 10 0 6 14 10 30 10
17 0 30 -4 30 -10 0 -5 4 -10 9 -10 5 0 0 25 -12 55 -11 30 -24 55 -29 55 -5
0 -15 -15 -22 -32z m34 -24 c0 -8 -7 -14 -15 -14 -17 0 -18 2 -9 24 7 18 24
12 24 -10z"/>
<path d="M2210 2145 c0 -30 4 -55 9 -55 6 0 8 9 6 20 -6 30 13 34 27 6 6 -14
15 -26 20 -26 10 0 10 11 -1 29 -6 9 -5 21 1 31 17 27 3 50 -32 50 -30 0 -30
0 -30 -55z m44 39 c25 -10 19 -34 -9 -34 -27 0 -28 1 -19 24 7 18 7 18 28 10z"/>
<path d="M2310 2145 c0 -30 5 -55 10 -55 6 0 10 25 10 55 0 30 -4 55 -10 55
-5 0 -10 -25 -10 -55z"/>
<path d="M2365 2180 c-25 -27 -10 -71 27 -84 53 -19 91 50 50 87 -25 23 -55
21 -77 -3z m70 -35 c0 -27 -3 -30 -30 -30 -21 0 -31 5 -33 18 -6 33 6 49 35
45 24 -3 28 -8 28 -33z"/>
<path d="M2487 2193 c-17 -16 -5 -42 24 -52 37 -13 29 -36 -9 -26 -23 6 -24 4
-12 -10 19 -23 54 -15 58 12 2 16 -4 26 -22 35 -14 6 -26 14 -26 18 0 15 14
19 27 8 15 -12 28 -5 18 11 -7 12 -48 15 -58 4z"/>
<path d="M2623 2174 c-15 -24 -15 -29 -2 -53 17 -30 59 -40 77 -18 10 12 6 14
-25 13 -36 -1 -38 1 -38 29 0 28 2 30 38 29 30 -1 35 1 26 12 -19 23 -57 17
-76 -12z"/>
<path d="M2753 2148 c-12 -29 -18 -55 -15 -58 2 -3 7 1 9 8 3 6 17 12 33 12
16 0 30 -6 33 -12 2 -7 7 -11 10 -7 10 8 -26 109 -39 109 -6 0 -20 -24 -31
-52z m47 -10 c0 -5 -9 -8 -20 -8 -18 0 -19 3 -9 21 9 17 13 19 20 8 5 -8 9
-17 9 -21z"/>
<path d="M2902 2156 c-2 -47 -3 -48 -28 -42 -19 5 -25 3 -22 -6 6 -19 47 -22
54 -5 3 8 4 34 1 58 l-4 44 -1 -49z"/>
<path d="M2962 2148 c-11 -29 -18 -55 -15 -58 3 -3 8 1 10 8 3 6 17 12 33 12
16 0 30 -6 33 -12 2 -7 7 -10 10 -7 9 7 -28 102 -41 107 -6 2 -19 -21 -30 -50z
m41 2 c4 -15 0 -20 -13 -20 -13 0 -17 5 -13 20 3 11 9 20 13 20 4 0 10 -9 13
-20z"/>
<path d="M5881 2145 c2 -53 3 -55 31 -55 37 0 71 34 63 63 -9 30 -33 47 -67
47 -29 0 -29 -1 -27 -55z m74 16 c9 -28 -5 -51 -31 -51 -21 0 -24 5 -24 35 0
30 3 35 24 35 15 0 27 -7 31 -19z"/>
<path d="M6000 2145 c0 -35 4 -54 10 -50 12 7 10 94 -2 101 -4 3 -8 -20 -8
-51z"/>
<path d="M6042 2145 c-2 -34 1 -55 7 -55 6 0 11 16 11 37 0 35 0 36 20 18 11
-10 22 -26 25 -36 12 -38 25 -17 23 39 -1 42 -2 47 -5 20 -2 -21 -7 -38 -11
-38 -4 0 -17 16 -30 35 -12 19 -26 35 -30 35 -4 0 -8 -25 -10 -55z"/>
<path d="M6160 2145 c0 -54 0 -55 30 -55 17 0 30 5 30 10 0 6 -9 10 -20 10
-27 0 -25 28 3 33 l22 4 -22 2 c-16 1 -23 7 -23 20 0 12 8 21 23 24 16 3 13 5
-10 6 l-33 1 0 -55z"/>
<path d="M6251 2143 c1 -32 3 -49 6 -38 9 35 21 39 34 12 7 -15 16 -27 21 -27
12 0 10 14 -4 28 -9 9 -9 15 0 24 28 28 8 58 -39 58 -17 0 -19 -7 -18 -57z
m48 34 c13 -16 5 -27 -21 -27 -18 0 -25 20 -11 33 10 10 19 8 32 -6z"/>
<path d="M6362 2188 c-22 -29 -23 -57 -3 -77 12 -12 29 -21 39 -21 24 0 52 31
52 57 0 41 -64 70 -88 41z m63 -43 c0 -25 -4 -31 -26 -33 -29 -3 -44 18 -33
50 4 14 13 18 32 16 23 -2 27 -8 27 -33z"/>
<path d="M6510 2145 c0 -30 5 -55 10 -55 6 0 10 25 10 55 0 30 -4 55 -10 55
-5 0 -10 -25 -10 -55z"/>
<path d="M6562 2143 c1 -43 2 -48 5 -20 2 20 7 37 11 37 4 0 17 -16 30 -35 12
-19 27 -35 32 -35 6 0 10 25 10 55 0 62 -17 75 -22 18 l-3 -38 -25 37 c-14 21
-28 38 -32 38 -5 0 -7 -26 -6 -57z"/>
<path d="M6686 2184 c-39 -39 1 -106 52 -88 16 6 28 18 30 32 3 18 -1 22 -25
21 -17 -1 -21 -3 -10 -6 29 -8 21 -35 -10 -31 -24 3 -28 8 -28 33 0 28 2 30
38 29 30 -1 35 1 26 12 -15 19 -54 18 -73 -2z"/>
<path d="M6801 2143 c1 -32 3 -49 6 -38 9 35 21 39 34 12 7 -15 16 -27 21 -27
12 0 10 14 -4 28 -10 10 -10 15 0 21 8 5 12 19 10 32 -2 19 -10 25 -35 27
l-33 3 1 -58z m48 34 c13 -16 5 -27 -21 -27 -18 0 -25 20 -11 33 10 10 19 8
32 -6z"/>
<path d="M6900 2145 c0 -55 0 -55 31 -55 17 0 28 4 24 10 -3 6 -12 10 -20 10
-25 0 -27 20 -3 29 17 7 19 10 6 10 -27 1 -23 39 5 44 16 3 13 5 -10 6 l-33 1
0 -55z"/>
<path d="M6986 2185 c-8 -22 0 -34 30 -45 36 -14 31 -34 -7 -26 -27 5 -30 4
-19 -9 16 -20 44 -19 61 1 11 14 10 19 -9 34 -12 10 -28 20 -34 22 -6 2 -8 10
-4 16 5 9 12 9 28 1 16 -9 19 -8 16 3 -7 20 -54 22 -62 3z"/>
<path d="M7113 2188 c-11 -14 -33 -75 -33 -91 0 -7 5 -6 12 1 7 7 21 12 33 12
12 0 26 -5 33 -12 16 -16 15 -1 -4 55 -16 49 -25 56 -41 35z m27 -44 c0 -8 -7
-14 -15 -14 -17 0 -18 2 -9 24 7 18 24 12 24 -10z"/>
<path d="M7200 2145 c0 -51 2 -55 23 -55 33 0 67 28 67 54 0 30 -30 56 -63 56
-26 0 -27 -2 -27 -55z m65 0 c0 -25 -4 -30 -27 -33 -26 -3 -28 -1 -28 33 0 34
2 36 28 33 23 -3 27 -8 27 -33z"/>
<path d="M7328 2189 c-36 -20 -13 -99 28 -99 33 0 54 21 54 53 0 52 -37 73
-82 46z m67 -29 c9 -27 -5 -50 -31 -50 -26 0 -44 24 -37 51 9 32 58 32 68 -1z"/>
<path d="M9997 2193 c-11 -10 -8 -91 3 -98 6 -3 10 3 10 13 0 13 10 24 30 31
31 10 38 29 18 49 -13 13 -50 16 -61 5z m51 -26 c2 -12 -3 -17 -17 -17 -12 0
-21 6 -21 13 0 31 32 34 38 4z"/>
<path d="M10108 2189 c-22 -13 -24 -62 -2 -83 45 -45 114 17 79 70 -16 25 -48
31 -77 13z m67 -28 c9 -28 -5 -51 -31 -51 -30 0 -51 35 -33 56 17 20 56 18 64
-5z"/>
<path d="M10221 2143 c1 -32 3 -49 6 -38 9 35 21 39 34 12 7 -15 16 -27 21
-27 11 0 10 14 -3 27 -8 8 -7 16 2 30 18 30 5 53 -31 53 l-30 0 1 -57z m48 38
c18 -11 5 -31 -20 -31 -18 0 -26 20 -12 33 8 9 15 9 32 -2z"/>
<path d="M10365 2180 c-15 -16 -17 -26 -9 -48 12 -35 58 -52 80 -30 14 14 12
15 -23 14 -36 -1 -38 1 -38 29 0 28 2 30 38 29 30 -1 35 1 26 12 -17 20 -53
17 -74 -6z"/>
<path d="M10498 2189 c-22 -13 -24 -62 -2 -83 45 -45 114 17 79 70 -16 25 -48
31 -77 13z m67 -29 c14 -44 -44 -69 -65 -29 -9 15 -8 24 1 35 18 21 57 18 64
-6z"/>
<path d="M10610 2146 c0 -55 1 -56 29 -56 32 0 57 23 45 42 -4 7 -8 24 -8 38
-1 21 -6 26 -33 28 l-33 3 0 -55z m50 34 c13 -9 13 -11 0 -20 -19 -12 -27 -12
-35 0 -7 11 2 30 13 30 4 0 14 -5 22 -10z m10 -55 c0 -9 -9 -15 -25 -15 -16 0
-25 6 -25 15 0 9 9 15 25 15 16 0 25 -6 25 -15z"/>
<path d="M10710 2144 c0 -34 4 -53 10 -49 6 3 10 16 10 28 1 21 1 21 15 3 8
-10 16 -24 18 -30 2 -6 8 -8 12 -4 4 3 2 14 -3 24 -7 13 -6 22 4 32 22 21 0
52 -36 52 -30 0 -30 -1 -30 -56z m48 34 c17 -17 15 -28 -7 -28 -19 0 -35 23
-24 34 9 9 18 7 31 -6z"/>
<path d="M10827 2151 c-20 -57 -21 -69 -5 -53 7 7 21 12 33 12 12 0 26 -5 33
-12 16 -16 15 -1 -4 55 -9 26 -21 47 -28 47 -6 0 -19 -22 -29 -49z m43 -7 c0
-8 -7 -14 -15 -14 -17 0 -18 2 -9 24 7 18 24 12 24 -10z"/>
<path d="M10931 2143 c1 -32 4 -48 6 -35 5 27 29 29 38 2 3 -11 11 -20 16 -20
12 0 11 14 -2 27 -8 8 -7 16 2 30 18 30 5 53 -31 53 l-30 0 1 -57z m48 38 c18
-11 5 -31 -20 -31 -18 0 -26 20 -12 33 8 9 15 9 32 -2z"/>
<path d="M9530 2176 c0 -20 26 -27 71 -20 62 10 51 34 -16 34 -40 0 -55 -4
-55 -14z m67 -8 c-28 -7 -42 -7 -50 1 -8 8 2 11 39 10 l49 -1 -38 -10z"/>
<path d="M1421 2136 c-19 -23 -4 -56 25 -56 28 0 42 25 27 49 -14 22 -37 25
-52 7z m47 -24 c3 -16 -2 -22 -17 -22 -24 0 -35 15 -27 36 9 23 40 13 44 -14z"/>
<path d="M1317 2093 c-13 -12 -7 -41 10 -47 21 -8 48 17 40 38 -6 16 -38 22
-50 9z m41 -20 c-2 -10 -10 -18 -18 -18 -8 0 -16 8 -18 18 -2 12 3 17 18 17
15 0 20 -5 18 -17z"/>
<path d="M1524 2085 c-4 -9 0 -23 8 -31 20 -20 50 -7 46 20 -4 26 -45 35 -54
11z m44 -12 c-2 -10 -10 -18 -18 -18 -8 0 -16 8 -18 18 -2 12 3 17 18 17 15 0
20 -5 18 -17z"/>
<path d="M9502 2033 c-2 -48 19 -67 66 -60 25 4 25 4 -4 6 -38 1 -51 15 -57
61 -4 34 -4 33 -5 -7z"/>
<path d="M1394 2043 c-10 -11 -29 -16 -49 -14 -47 4 -87 -44 -53 -65 8 -5 9
-2 5 11 -16 39 45 62 78 29 20 -20 15 -25 -32 -34 l-38 -8 36 -1 c19 0 40 4
46 10 7 7 30 9 62 5 28 -3 73 -9 101 -12 41 -5 51 -3 56 10 10 26 -25 57 -60
54 -19 -2 -38 4 -48 15 -23 22 -81 22 -104 0z m99 -11 c24 -26 4 -42 -50 -42
-30 0 -45 5 -49 15 -16 41 67 63 99 27z m92 -25 c26 -20 10 -37 -36 -37 -40 0
-51 14 -27 38 16 16 40 15 63 -1z"/>
<path d="M9675 2049 c4 -5 4 -21 1 -35 -5 -20 -13 -24 -44 -26 l-37 -1 35 -4
c25 -3 38 0 47 13 16 21 17 64 2 64 -5 0 -7 -5 -4 -11z"/>
<path d="M9618 2023 c7 -3 16 -2 19 1 4 3 -2 6 -13 5 -11 0 -14 -3 -6 -6z"/>
<path d="M5390 1731 c0 -5 -9 -13 -20 -16 -11 -4 -27 -17 -36 -30 -19 -29 -5
-61 32 -75 15 -6 24 -17 24 -32 0 -17 -3 -19 -12 -10 -7 7 -20 12 -30 12 -28
0 -22 -35 10 -51 15 -8 31 -18 35 -24 6 -6 10 -6 14 3 2 6 11 12 18 12 8 0 22
11 33 25 26 32 18 65 -20 79 -21 8 -28 17 -27 36 0 14 3 19 6 13 6 -15 53 -18
53 -3 0 6 -9 18 -19 28 -49 43 -61 50 -61 33z m0 -73 c0 -16 -3 -19 -11 -11
-6 6 -8 16 -5 22 11 17 16 13 16 -11z m35 -77 c3 -5 1 -12 -5 -16 -5 -3 -10 1
-10 9 0 18 6 21 15 7z"/>
<path d="M9500 1731 c0 -5 -9 -13 -20 -16 -11 -4 -27 -17 -36 -30 -19 -29 -5
-61 32 -75 15 -6 24 -17 24 -32 0 -17 -3 -19 -12 -10 -16 16 -48 15 -48 -1 0
-16 32 -47 47 -47 6 0 14 -6 17 -12 5 -10 7 -10 12 0 3 6 12 12 19 12 8 0 22
11 33 25 26 32 18 65 -20 79 -21 8 -28 17 -27 36 0 14 3 19 6 13 2 -7 16 -13
30 -13 33 0 27 30 -10 48 -15 7 -27 17 -27 23 0 5 -4 9 -10 9 -5 0 -10 -4 -10
-9z m0 -73 c0 -16 -3 -19 -11 -11 -6 6 -8 16 -5 22 11 17 16 13 16 -11z m40
-83 c0 -8 -4 -15 -10 -15 -5 0 -10 7 -10 15 0 8 5 15 10 15 6 0 10 -7 10 -15z"/>
<path d="M5596 1707 c-22 -22 -26 -35 -26 -82 0 -46 4 -60 25 -80 31 -32 69
-32 102 1 23 23 25 31 21 85 -5 66 -18 85 -65 95 -26 5 -37 1 -57 -19z m68
-33 c31 -31 18 -104 -19 -104 -25 0 -35 17 -35 60 0 24 21 60 35 60 2 0 11 -7
19 -16z"/>
<path d="M10165 1705 c-21 -20 -25 -34 -25 -80 0 -46 4 -60 25 -80 31 -32 69
-32 102 1 23 23 25 31 21 86 -4 48 -9 65 -27 79 -32 26 -67 24 -96 -6z m79
-41 c17 -45 2 -94 -29 -94 -24 0 -35 17 -35 55 0 38 11 55 35 55 13 0 26 -7
29 -16z"/>
<path d="M10349 1711 c-21 -17 -24 -28 -24 -86 0 -58 3 -69 24 -86 32 -26 67
-24 96 6 21 20 25 34 25 80 0 46 -4 60 -25 80 -29 30 -64 32 -96 6z m75 -47
c17 -45 2 -94 -29 -94 -27 0 -41 39 -29 84 7 30 48 37 58 10z"/>
<path d="M10535 1707 c-33 -28 -43 -89 -22 -139 30 -71 121 -56 141 23 12 49
-7 113 -39 127 -37 17 -50 15 -80 -11z m70 -82 c0 -47 -2 -50 -25 -50 -22 0
-25 5 -28 39 -4 52 3 68 30 64 20 -3 23 -9 23 -53z"/>
<path d="M1210 1700 c0 -11 7 -20 15 -20 12 0 15 -16 15 -80 0 -73 2 -80 20
-80 19 0 20 7 20 100 l0 100 -35 0 c-28 0 -35 -4 -35 -20z"/>
<path d="M5864 1710 c-33 -13 -54 -50 -54 -95 1 -60 37 -95 98 -95 33 0 82 34
82 56 0 19 -37 18 -56 -1 -23 -22 -51 -18 -70 10 -34 51 13 113 61 81 33 -21
69 -21 61 0 -3 9 -6 17 -6 20 0 8 -60 34 -77 33 -10 0 -28 -4 -39 -9z"/>
<path d="M6071 1706 c-87 -48 -51 -186 49 -186 38 0 71 22 89 57 43 84 -54
176 -138 129z m77 -42 c44 -31 22 -104 -32 -104 -45 0 -63 77 -24 104 12 9 25
16 28 16 3 0 16 -7 28 -16z"/>
<path d="M6255 1711 c-3 -2 -5 -46 -5 -98 0 -86 1 -93 20 -93 16 0 20 7 20 35
0 32 3 35 29 35 58 0 96 60 63 100 -13 16 -30 22 -70 24 -29 1 -55 0 -57 -3z
m90 -56 c0 -14 -8 -21 -27 -23 -24 -3 -28 0 -28 23 0 23 4 26 28 23 19 -2 27
-9 27 -23z"/>
<path d="M9723 1660 c-24 -33 -43 -69 -43 -80 0 -17 7 -20 45 -20 38 0 45 -3
45 -20 0 -15 7 -20 25 -20 18 0 25 5 25 20 0 11 5 20 10 20 6 0 10 9 10 20 0
11 -4 20 -10 20 -6 0 -10 27 -10 60 0 59 -1 60 -27 60 -23 0 -36 -12 -70 -60z
m57 -30 c0 -26 -4 -30 -26 -30 l-25 0 18 30 c9 17 21 30 25 30 4 0 8 -13 8
-30z"/>
<path d="M9912 1657 c-56 -82 -55 -97 3 -97 38 0 45 -3 45 -20 0 -15 7 -20 25
-20 18 0 25 5 25 20 0 11 5 20 10 20 6 0 10 9 10 20 0 11 -4 20 -10 20 -6 0
-10 27 -10 60 0 59 -1 60 -28 60 -22 0 -35 -11 -70 -63z m58 -27 c0 -26 -4
-30 -26 -30 l-25 0 18 30 c9 17 21 30 25 30 4 0 8 -13 8 -30z"/>
<path d="M10788 1705 c-86 -48 -51 -185 47 -185 28 0 44 8 68 32 31 32 31 33
10 36 -12 2 -34 -4 -48 -14 -38 -25 -75 -6 -75 38 0 56 35 80 77 53 13 -9 34
-15 45 -13 21 3 21 3 -3 31 -30 34 -83 44 -121 22z"/>
<path d="M11015 1711 c-37 -16 -60 -51 -60 -93 0 -33 6 -45 33 -69 44 -40 93
-40 133 0 48 49 38 125 -21 156 -32 16 -55 18 -85 6z m75 -51 c11 -11 20 -29
20 -40 0 -24 -34 -60 -57 -60 -49 0 -72 76 -31 104 30 21 44 20 68 -4z"/>
<path d="M11180 1615 c0 -95 0 -95 25 -95 22 0 25 4 25 35 0 32 2 35 30 35 58
0 92 67 52 103 -13 12 -37 17 -75 17 l-57 0 0 -95z m98 38 c3 -19 -1 -23 -22
-23 -21 0 -26 5 -26 26 0 21 4 25 23 22 14 -2 23 -11 25 -25z"/>
<path d="M10067 1564 c-4 -4 -7 -16 -7 -26 0 -14 6 -19 23 -16 14 2 22 10 22
23 0 20 -25 32 -38 19z"/>
<path d="M1405 1230 c-4 -6 3 -10 14 -10 25 0 27 6 6 13 -8 4 -17 2 -20 -3z"/>
<path d="M2355 1230 c-4 -6 3 -10 14 -10 25 0 27 6 6 13 -8 4 -17 2 -20 -3z"/>
<path d="M9835 1230 c-4 -6 3 -10 14 -10 25 0 27 6 6 13 -8 4 -17 2 -20 -3z"/>
<path d="M10300 1225 c0 -9 6 -12 15 -9 8 4 15 7 15 9 0 2 -7 5 -15 9 -9 3
-15 0 -15 -9z"/>
<path d="M1608 1223 c7 -3 16 -2 19 1 4 3 -2 6 -13 5 -11 0 -14 -3 -6 -6z"/>
<path d="M2176 1221 c-4 -5 3 -7 14 -4 23 6 26 13 6 13 -8 0 -17 -4 -20 -9z"/>
<path d="M2275 1220 c-3 -6 1 -7 9 -4 18 7 21 14 7 14 -6 0 -13 -4 -16 -10z"/>
<path d="M2650 1226 c0 -2 7 -7 16 -10 8 -3 12 -2 9 4 -6 10 -25 14 -25 6z"/>
<path d="M5500 1226 c0 -2 7 -7 16 -10 8 -3 12 -2 9 4 -6 10 -25 14 -25 6z"/>
<path d="M5588 1223 c7 -3 16 -2 19 1 4 3 -2 6 -13 5 -11 0 -14 -3 -6 -6z"/>
<path d="M5978 1223 c7 -3 16 -2 19 1 4 3 -2 6 -13 5 -11 0 -14 -3 -6 -6z"/>
<path d="M6138 1223 c7 -3 16 -2 19 1 4 3 -2 6 -13 5 -11 0 -14 -3 -6 -6z"/>
<path d="M6230 1226 c0 -2 9 -6 20 -9 11 -3 18 -1 14 4 -5 9 -34 13 -34 5z"/>
<path d="M6430 1215 c-6 -8 -10 -20 -7 -27 4 -8 6 -7 6 4 1 9 9 22 19 27 9 6
12 11 6 11 -6 0 -17 -7 -24 -15z"/>
<path d="M6576 1221 c-4 -5 3 -7 14 -4 23 6 26 13 6 13 -8 0 -17 -4 -20 -9z"/>
<path d="M9628 1223 c6 -2 18 -2 25 0 6 3 1 5 -13 5 -14 0 -19 -2 -12 -5z"/>
<path d="M9706 1221 c-4 -5 3 -7 14 -4 23 6 26 13 6 13 -8 0 -17 -4 -20 -9z"/>
<path d="M10010 1226 c0 -2 7 -7 16 -10 8 -3 12 -2 9 4 -6 10 -25 14 -25 6z"/>
<path d="M10115 1220 c-3 -6 1 -7 9 -4 18 7 21 14 7 14 -6 0 -13 -4 -16 -10z"/>
<path d="M10217 1223 c-3 -5 8 -8 23 -8 15 0 26 3 23 8 -2 4 -13 7 -23 7 -10
0 -21 -3 -23 -7z"/>
<path d="M10730 1226 c0 -2 7 -7 16 -10 8 -3 12 -2 9 4 -6 10 -25 14 -25 6z"/>
<path d="M10836 1215 c13 -10 15 -14 5 -15 -8 0 -12 -3 -8 -6 3 -3 11 -3 17 1
13 8 -5 35 -23 35 -6 0 -2 -7 9 -15z"/>
<path d="M10920 1226 c0 -2 7 -7 16 -10 8 -3 12 -2 9 4 -6 10 -25 14 -25 6z"/>
<path d="M10998 1223 c7 -3 16 -2 19 1 4 3 -2 6 -13 5 -11 0 -14 -3 -6 -6z"/>
<path d="M11125 1220 c-3 -6 1 -7 9 -4 18 7 21 14 7 14 -6 0 -13 -4 -16 -10z"/>
<path d="M11308 1223 c6 -2 18 -2 25 0 6 3 1 5 -13 5 -14 0 -19 -2 -12 -5z"/>
<path d="M6176 1205 c4 -8 8 -15 10 -15 2 0 4 7 4 15 0 8 -4 15 -10 15 -5 0
-7 -7 -4 -15z"/>
<path d="M11082 1200 c0 -14 2 -19 5 -12 2 6 2 18 0 25 -3 6 -5 1 -5 -13z"/>
<path d="M1800 1200 c0 -5 7 -10 15 -10 8 0 15 5 15 10 0 6 -7 10 -15 10 -8 0
-15 -4 -15 -10z"/>
<path d="M2131 1194 c0 -11 3 -14 6 -6 3 7 2 16 -1 19 -3 4 -6 -2 -5 -13z"/>
<path d="M6001 1194 c0 -11 3 -14 6 -6 3 7 2 16 -1 19 -3 4 -6 -2 -5 -13z"/>
<path d="M6667 1199 c7 -7 15 -10 18 -7 3 3 -2 9 -12 12 -14 6 -15 5 -6 -5z"/>
<path d="M11457 1199 c7 -7 15 -10 18 -7 3 3 -2 9 -12 12 -14 6 -15 5 -6 -5z"/>
<path d="M5858 1193 c6 -2 18 -2 25 0 6 3 1 5 -13 5 -14 0 -19 -2 -12 -5z"/>
<path d="M1270 1181 c0 -6 4 -13 10 -16 6 -3 7 1 4 9 -7 18 -14 21 -14 7z"/>
<path d="M2226 1175 c-3 -8 -1 -15 4 -15 6 0 10 7 10 15 0 8 -2 15 -4 15 -2 0
-6 -7 -10 -15z"/>
<path d="M6626 1175 c-3 -8 -1 -15 4 -15 6 0 10 7 10 15 0 8 -2 15 -4 15 -2 0
-6 -7 -10 -15z"/>
<path d="M10470 1181 c0 -6 4 -13 10 -16 6 -3 7 1 4 9 -7 18 -14 21 -14 7z"/>
<path d="M10691 1174 c0 -11 3 -14 6 -6 3 7 2 16 -1 19 -3 4 -6 -2 -5 -13z"/>
<path d="M2300 1160 c-23 -7 -23 -8 -3 -9 12 -1 25 4 28 9 3 6 5 10 3 9 -2 -1
-14 -5 -28 -9z"/>
<path d="M2655 1160 c-16 -7 -17 -9 -3 -9 9 -1 20 4 23 9 7 11 7 11 -20 0z"/>
<path d="M6438 1158 c5 -5 16 -8 23 -6 8 3 3 7 -10 11 -17 4 -21 3 -13 -5z"/>
<path d="M9847 1159 c7 -7 15 -10 18 -7 3 3 -2 9 -12 12 -14 6 -15 5 -6 -5z"/>
<path d="M9908 1158 c5 -5 16 -8 23 -6 8 3 3 7 -10 11 -17 4 -21 3 -13 -5z"/>
<path d="M10117 1159 c7 -7 15 -10 18 -7 3 3 -2 9 -12 12 -14 6 -15 5 -6 -5z"/>
<path d="M10595 1160 c-16 -7 -17 -9 -3 -9 9 -1 20 4 23 9 7 11 7 11 -20 0z"/>
<path d="M10735 1160 c-16 -7 -17 -9 -3 -9 9 -1 20 4 23 9 7 11 7 11 -20 0z"/>
<path d="M1338 1153 c7 -3 16 -2 19 1 4 3 -2 6 -13 5 -11 0 -14 -3 -6 -6z"/>
<path d="M1608 1153 c7 -3 16 -2 19 1 4 3 -2 6 -13 5 -11 0 -14 -3 -6 -6z"/>
<path d="M2558 1153 c7 -3 16 -2 19 1 4 3 -2 6 -13 5 -11 0 -14 -3 -6 -6z"/>
<path d="M5338 1153 c6 -2 18 -2 25 0 6 3 1 5 -13 5 -14 0 -19 -2 -12 -5z"/>
<path d="M5588 1153 c7 -3 16 -2 19 1 4 3 -2 6 -13 5 -11 0 -14 -3 -6 -6z"/>
<path d="M5738 1153 c7 -3 16 -2 19 1 4 3 -2 6 -13 5 -11 0 -14 -3 -6 -6z"/>
<path d="M6358 1153 c7 -3 16 -2 19 1 4 3 -2 6 -13 5 -11 0 -14 -3 -6 -6z"/>
<path d="M6688 1153 c7 -3 16 -2 19 1 4 3 -2 6 -13 5 -11 0 -14 -3 -6 -6z"/>
<path d="M10008 1153 c7 -3 16 -2 19 1 4 3 -2 6 -13 5 -11 0 -14 -3 -6 -6z"/>
<path d="M10691 1134 c0 -11 3 -14 6 -6 3 7 2 16 -1 19 -3 4 -6 -2 -5 -13z"/>
<path d="M2067 463 c-4 -3 -7 -44 -7 -90 0 -76 2 -83 20 -83 19 0 20 7 20 90
0 68 -3 90 -13 90 -8 0 -17 -3 -20 -7z"/>
<path d="M10280 380 c0 -83 1 -90 20 -90 19 0 20 7 20 90 0 83 -1 90 -20 90
-19 0 -20 -7 -20 -90z"/>
<path d="M1072 453 c-18 -7 -33 -39 -26 -58 4 -9 24 -23 45 -32 22 -8 39 -19
39 -24 0 -15 -30 -23 -43 -10 -6 6 -19 11 -29 11 -15 0 -17 -3 -8 -19 20 -39
90 -39 110 -1 14 26 -3 58 -35 66 -36 9 -52 32 -29 41 10 4 19 2 22 -5 5 -17
42 -15 42 3 0 26 -52 43 -88 28z"/>
<path d="M8240 375 c0 -77 2 -85 19 -85 16 0 21 8 23 38 l3 37 20 -37 c13 -27
25 -38 42 -38 l23 0 -19 31 c-19 30 -19 31 0 50 41 41 6 89 -66 89 l-45 0 0
-85z m85 30 c0 -13 -8 -21 -22 -23 -19 -3 -23 1 -23 23 0 22 4 26 23 23 14 -2
22 -10 22 -23z"/>
<path d="M8970 435 c0 -8 -4 -15 -10 -15 -5 0 -10 -7 -10 -15 0 -8 5 -15 10
-15 6 0 10 -18 10 -40 0 -29 5 -42 19 -50 27 -14 41 -13 41 5 0 8 -4 15 -9 15
-5 0 -11 16 -13 35 -3 24 0 35 9 35 7 0 13 7 13 15 0 8 -4 15 -10 15 -5 0 -10
7 -10 15 0 8 -9 15 -20 15 -11 0 -20 -7 -20 -15z"/>
<path d="M1200 367 c0 -29 5 -58 12 -65 15 -15 51 -15 66 0 9 9 12 9 12 0 0
-7 7 -12 15 -12 12 0 15 14 15 65 0 51 -3 65 -15 65 -11 0 -15 -12 -15 -44 0
-37 -4 -46 -21 -51 -27 -9 -39 8 -39 58 0 26 -4 37 -15 37 -11 0 -15 -13 -15
-53z"/>
<path d="M1366 398 c-44 -62 18 -133 85 -98 21 12 26 40 6 40 -7 0 -18 -5 -24
-11 -20 -20 -45 -2 -41 28 3 26 6 28 41 25 38 -3 46 5 25 26 -21 21 -75 15
-92 -10z"/>
<path d="M1500 377 c0 -65 19 -85 80 -84 l50 1 0 63 c0 49 -3 63 -15 63 -11 0
-15 -11 -15 -39 0 -41 -20 -67 -45 -57 -10 4 -15 19 -15 51 0 38 -3 45 -20 45
-17 0 -20 -7 -20 -43z"/>
<path d="M1670 354 c0 -50 3 -64 15 -64 11 0 15 11 15 40 0 30 5 42 18 47 17
6 32 22 32 34 0 4 -18 6 -40 6 l-40 0 0 -63z"/>
<path d="M1774 406 c-11 -29 1 -50 34 -60 47 -13 40 -29 -10 -21 l-43 7 19
-21 c21 -23 65 -28 84 -9 23 23 13 48 -24 64 -25 10 -33 19 -26 26 6 6 16 5
30 -3 25 -16 40 -5 22 16 -16 19 -79 20 -86 1z"/>
<path d="M1912 407 c-18 -23 -21 -47 -11 -76 12 -33 23 -38 87 -39 l42 -1 0
63 0 64 -54 1 c-31 0 -58 -5 -64 -12z m73 -52 c0 -23 -5 -30 -19 -30 -24 0
-41 27 -33 49 4 11 15 16 29 14 18 -2 23 -9 23 -33z"/>
<path d="M2147 402 c-51 -56 17 -137 84 -102 32 17 23 33 -15 26 -24 -5 -37
-2 -46 9 -11 13 -6 15 39 15 55 0 62 9 35 48 -19 28 -74 30 -97 4z m73 -22 c0
-5 -11 -10 -25 -10 -14 0 -25 5 -25 10 0 6 11 10 25 10 14 0 25 -4 25 -10z"/>
<path d="M2290 405 c-17 -21 -5 -44 30 -56 42 -15 38 -31 -5 -23 -41 7 -48
-10 -11 -27 29 -14 72 -5 80 16 6 17 -2 45 -14 45 -5 0 -21 5 -36 10 -19 8
-24 14 -17 21 7 7 17 7 31 -2 24 -15 37 -7 29 16 -8 20 -70 20 -87 0z"/>
<path d="M8407 402 c-51 -56 17 -137 84 -102 31 17 22 31 -17 28 -23 -2 -39 2
-41 10 -3 8 9 12 41 12 50 0 57 10 30 48 -19 28 -74 30 -97 4z m73 -22 c0 -5
-11 -10 -25 -10 -14 0 -25 5 -25 10 0 6 11 10 25 10 14 0 25 -4 25 -10z"/>
<path d="M8550 323 c0 -76 3 -93 15 -93 11 0 15 11 15 36 0 35 1 35 31 29 39
-9 69 16 69 57 0 55 -14 68 -75 66 l-55 -2 0 -93z m95 47 c7 -23 -10 -50 -30
-50 -20 0 -37 27 -30 50 4 13 15 20 30 20 15 0 26 -7 30 -20z"/>
<path d="M8716 398 c-34 -48 -4 -108 52 -108 42 0 67 32 63 82 -3 48 -87 67
-115 26z m82 -34 c4 -25 -22 -49 -43 -40 -15 5 -21 47 -8 60 14 14 48 1 51
-20z"/>
<path d="M8860 355 c0 -58 2 -65 20 -65 17 0 20 7 20 45 0 38 3 45 20 45 13 0
20 7 20 20 0 23 -10 26 -28 8 -9 -9 -12 -9 -12 0 0 7 -9 12 -20 12 -18 0 -20
-7 -20 -65z"/>
<path d="M9072 407 c-21 -25 -21 -65 -1 -92 25 -30 58 -32 90 -5 l24 21 -44
-3 c-28 -2 -46 1 -48 10 -3 8 9 12 41 12 39 0 46 3 46 19 0 11 -7 27 -16 35
-19 19 -77 21 -92 3z m68 -27 c0 -5 -12 -10 -26 -10 -14 0 -23 4 -19 10 3 6
15 10 26 10 10 0 19 -4 19 -10z"/>
<path d="M9217 413 c-4 -3 -7 -17 -7 -29 0 -17 9 -26 35 -35 49 -18 44 -32 -7
-24 l-43 7 19 -21 c21 -23 47 -27 77 -11 32 18 24 49 -17 66 -25 10 -33 19
-26 26 6 6 16 5 30 -3 25 -16 40 -5 22 16 -12 15 -71 21 -83 8z"/>
<path d="M9400 400 c-15 -28 -12 -76 6 -94 18 -19 55 -21 72 -4 9 9 12 9 12
-3 -1 -33 -16 -41 -61 -34 l-44 7 19 -21 c23 -25 77 -28 100 -5 12 11 16 36
16 93 l0 77 -55 2 c-44 1 -57 -2 -65 -18z m79 -24 c15 -18 -2 -56 -23 -56 -21
0 -38 27 -31 50 7 23 37 27 54 6z"/>
<path d="M9567 402 c-51 -56 17 -137 84 -102 32 17 23 33 -15 26 -24 -5 -37
-2 -46 9 -11 13 -6 15 39 15 55 0 62 9 35 48 -19 28 -74 30 -97 4z m73 -22 c0
-5 -11 -10 -25 -10 -14 0 -25 5 -25 10 0 6 11 10 25 10 14 0 25 -4 25 -10z"/>
<path d="M9710 353 c0 -48 3 -63 14 -63 11 0 16 14 18 48 3 43 5 47 28 47 23
0 25 -4 28 -47 3 -40 6 -48 23 -48 16 0 19 6 18 38 -1 20 -6 49 -11 64 -9 25
-14 27 -64 26 l-54 -2 0 -63z"/>
<path d="M9877 402 c-52 -57 25 -144 86 -98 27 20 20 29 -17 22 -24 -5 -37 -2
-46 9 -11 13 -6 15 39 15 55 0 62 9 35 48 -19 28 -74 30 -97 4z m73 -22 c0 -5
-11 -10 -25 -10 -14 0 -25 5 -25 10 0 6 11 10 25 10 14 0 25 -4 25 -10z"/>
<path d="M10010 354 c0 -57 2 -64 20 -64 17 0 20 7 20 45 0 38 3 45 20 45 13
0 20 7 20 18 0 14 -9 18 -40 19 l-40 2 0 -65z"/>
<path d="M10126 401 c-22 -24 -20 -67 4 -91 22 -22 55 -26 66 -9 5 8 9 7 14
-1 4 -7 14 -10 22 -7 10 3 15 24 17 65 l2 59 -55 1 c-40 0 -59 -4 -70 -17z
m79 -40 c0 -34 -32 -52 -50 -27 -19 25 -2 58 28 54 16 -2 22 -10 22 -27z"/>
<path d="M10360 404 c-19 -22 -16 -70 5 -94 23 -26 56 -26 86 0 l24 21 -44 -3
c-28 -2 -46 1 -48 10 -3 8 9 12 41 12 39 0 46 3 46 19 0 11 -7 27 -16 35 -20
20 -78 21 -94 0z m75 -24 c4 -6 -7 -10 -25 -10 -18 0 -29 4 -25 10 3 6 15 10
25 10 10 0 22 -4 25 -10z"/>
<path d="M10504 406 c-11 -29 1 -50 34 -58 49 -13 41 -31 -10 -23 l-43 7 19
-21 c21 -23 65 -28 84 -9 23 23 13 48 -24 64 -25 10 -33 19 -26 26 6 6 16 5
30 -3 25 -16 40 -5 22 16 -16 19 -79 20 -86 1z"/>
</g>
</svg>
