<svg width="1440" height="672" viewBox="0 0 1440 672" fill="none" xmlns="http://www.w3.org/2000/svg">
<path d="M1450.38 163.416C1413.72 171.333 1371.55 184.065 1336.06 196.392C1303.67 207.644 1265.72 219.042 1241.37 244.851C1223.52 263.767 1212.86 287.851 1212.24 314.045C1211.77 334.159 1216.35 354.436 1214.57 374.589C1213.07 391.596 1206.9 412.951 1199.38 428.382C1186.63 454.583 1159.27 476.896 1133.69 489.848C1106.57 503.578 1074.97 508.449 1046.15 517.335C1012.46 527.722 982.538 540.915 959.337 568.374C944.94 585.414 939.725 607.454 928.215 626.52C914.789 648.761 891.51 667.169 871.563 683.171C839.724 708.713 804.984 728.118 767.479 744.177C743.7 754.358 718.227 761.875 692.755 766.357C677.281 769.08 663.22 769.531 648.202 765.012C634.053 760.753 618.957 756.632 610.989 743.504" stroke="url(#paint0_linear_244_1266)" stroke-opacity="0.25" stroke-width="0.5966" stroke-linecap="round"/>
<path d="M1455.77 135.826C1419.11 143.744 1316.48 174.932 1280.99 187.259C1248.6 198.511 1210.66 209.91 1186.31 235.718C1168.46 254.634 1157.8 278.718 1157.18 304.912C1156.7 325.027 1161.28 345.303 1159.5 365.456C1158 382.464 1151.83 403.819 1144.32 419.25C1131.56 445.45 1104.2 467.763 1078.62 480.716C1051.51 494.445 1019.91 499.316 991.086 508.202C957.393 518.59 927.472 531.782 904.271 559.242C889.874 576.281 884.658 598.321 873.149 617.388C859.723 639.628 836.443 658.037 816.497 674.039C784.658 699.58 749.917 718.985 712.412 735.044C688.634 745.226 663.161 752.743 637.688 757.225C622.214 759.948 608.153 760.399 593.136 755.879C578.986 751.621 563.89 747.499 555.923 734.372" stroke="url(#paint1_linear_244_1266)" stroke-opacity="0.25" stroke-width="0.5966" stroke-linecap="round"/>
<path d="M1446.22 111.706C1409.56 119.623 1261.22 160.591 1225.74 172.918C1193.35 184.17 1155.4 195.569 1131.05 221.377C1113.2 240.293 1102.54 264.377 1101.92 290.571C1101.44 310.686 1106.03 330.962 1104.25 351.115C1102.74 368.123 1096.57 389.478 1089.06 404.909C1076.3 431.109 1048.94 453.422 1023.37 466.375C996.251 480.104 964.65 484.975 935.829 493.861C902.136 504.249 872.215 517.441 849.014 544.901C834.617 561.941 829.401 583.98 817.892 603.047C804.466 625.287 781.186 643.696 761.24 659.698C729.401 685.239 694.66 704.645 657.155 720.703C633.377 730.885 607.904 738.402 582.431 742.884C566.957 745.607 552.896 746.058 537.879 741.538C523.73 737.28 508.634 733.158 500.666 720.031" stroke="url(#paint2_linear_244_1266)" stroke-opacity="0.25" stroke-width="0.5966" stroke-linecap="round"/>
<path d="M1460.85 87.0904C1424.19 95.0076 1220.09 141.462 1184.61 153.789C1152.21 165.041 1114.27 176.44 1089.92 202.248C1072.07 221.164 1061.41 245.248 1060.79 271.442C1060.31 291.556 1064.89 311.833 1063.11 331.986C1061.61 348.994 1055.44 370.349 1047.93 385.78C1035.17 411.98 1007.81 434.293 982.234 447.246C955.12 460.975 923.519 465.846 894.697 474.732C861.005 485.12 831.084 498.312 807.883 525.772C793.486 542.811 788.27 564.851 776.76 583.917C763.334 606.158 740.055 624.567 720.108 640.568C688.269 666.11 653.529 685.515 616.024 701.574C592.246 711.756 566.773 719.273 541.3 723.755C525.826 726.478 511.765 726.929 496.747 722.409C482.598 718.151 467.502 714.029 459.534 700.902" stroke="url(#paint3_linear_244_1266)" stroke-opacity="0.25" stroke-width="0.5966" stroke-linecap="round"/>
<path d="M1454.3 58.2563C1417.64 66.1735 1188.73 127.922 1153.24 140.249C1120.85 151.501 1082.91 162.9 1058.55 188.709C1040.71 207.624 1030.05 231.708 1029.43 257.902C1028.95 278.017 1033.53 298.293 1031.75 318.446C1030.25 335.454 1024.08 356.809 1016.57 372.24C1003.81 398.44 976.45 420.754 950.871 433.706C923.757 447.436 892.156 452.307 863.334 461.192C829.642 471.58 799.721 484.772 776.52 512.232C762.123 529.272 756.907 551.311 745.398 570.378C731.972 592.618 708.692 611.027 688.745 627.029C656.907 652.571 622.166 671.976 584.661 688.034C560.883 698.216 535.41 705.733 509.937 710.215C494.463 712.938 480.402 713.389 465.385 708.869C451.235 704.611 436.139 700.489 428.172 687.362" stroke="url(#paint4_linear_244_1266)" stroke-opacity="0.25" stroke-width="0.5966" stroke-linecap="round"/>
<path d="M1450.87 33.2663C1414.22 41.1835 1133.66 118.79 1098.18 131.117C1065.79 142.369 1027.84 153.767 1003.49 179.576C985.639 198.492 974.981 222.576 974.361 248.77C973.884 268.884 978.465 289.16 976.686 309.314C975.184 326.321 969.012 347.676 961.499 363.107C948.742 389.308 921.384 411.621 895.805 424.573C868.691 438.303 837.089 443.174 808.268 452.06C774.576 462.447 744.655 475.64 721.454 503.099C707.056 520.139 701.841 542.179 690.331 561.245C676.905 583.486 653.626 601.894 633.679 617.896C601.84 643.438 567.1 662.843 529.595 678.902C505.817 689.083 480.344 696.6 454.871 701.083C439.397 703.805 425.336 704.256 410.319 699.737C396.169 695.478 381.073 691.357 373.106 678.229" stroke="url(#paint5_linear_244_1266)" stroke-opacity="0.25" stroke-width="0.5966" stroke-linecap="round"/>
<path d="M1150.7 87.0644C1114.04 94.9816 1078.41 104.449 1042.92 116.776C1010.53 128.028 972.583 139.426 948.231 165.235C930.383 184.151 919.724 208.235 919.104 234.429C918.628 254.543 923.208 274.82 921.429 294.973C919.927 311.98 913.755 333.336 906.242 348.767C893.486 374.967 866.128 397.28 840.548 410.233C813.434 423.962 781.833 428.833 753.011 437.719C719.319 448.106 689.398 461.299 666.197 488.758C651.8 505.798 646.584 527.838 635.075 546.904C621.649 569.145 598.369 587.553 578.422 603.555C546.584 629.097 511.843 648.502 474.338 664.561C450.56 674.742 425.087 682.259 399.614 686.742C384.14 689.465 370.079 689.915 355.062 685.396C340.912 681.137 325.816 677.016 317.849 663.888" stroke="url(#paint6_linear_244_1266)" stroke-opacity="0.25" stroke-width="0.5966" stroke-linecap="round"/>
<defs>
<linearGradient id="paint0_linear_244_1266" x1="983.986" y1="315.705" x2="1092.27" y2="635.128" gradientUnits="userSpaceOnUse">
<stop stop-color="white"/>
<stop offset="0.885417" stop-color="white" stop-opacity="0"/>
</linearGradient>
<linearGradient id="paint1_linear_244_1266" x1="958.843" y1="296.446" x2="1067.12" y2="615.853" gradientUnits="userSpaceOnUse">
<stop stop-color="white"/>
<stop offset="0.885417" stop-color="white" stop-opacity="0"/>
</linearGradient>
<linearGradient id="paint2_linear_244_1266" x1="925.574" y1="274.662" x2="1033.85" y2="594.06" gradientUnits="userSpaceOnUse">
<stop stop-color="white"/>
<stop offset="0.885417" stop-color="white" stop-opacity="0"/>
</linearGradient>
<linearGradient id="paint3_linear_244_1266" x1="910.285" y1="246.777" x2="1018.56" y2="566.171" gradientUnits="userSpaceOnUse">
<stop stop-color="white"/>
<stop offset="0.885417" stop-color="white" stop-opacity="0"/>
</linearGradient>
<linearGradient id="paint4_linear_244_1266" x1="892.377" y1="228.675" x2="1000.65" y2="548.07" gradientUnits="userSpaceOnUse">
<stop stop-color="white"/>
<stop offset="0.885417" stop-color="white" stop-opacity="0"/>
</linearGradient>
<linearGradient id="paint5_linear_244_1266" x1="862.88" y1="210.875" x2="971.15" y2="530.27" gradientUnits="userSpaceOnUse">
<stop stop-color="white"/>
<stop offset="0.885417" stop-color="white" stop-opacity="0"/>
</linearGradient>
<linearGradient id="paint6_linear_244_1266" x1="687.422" y1="237.262" x2="795.698" y2="556.674" gradientUnits="userSpaceOnUse">
<stop stop-color="white"/>
<stop offset="0.885417" stop-color="white" stop-opacity="0"/>
</linearGradient>
</defs>
</svg>
