<svg width="25" height="15" viewBox="0 0 25 15" fill="none" xmlns="http://www.w3.org/2000/svg">
<path d="M16.0143 1.6051H9.45117V13.3964H16.0143V1.6051Z" fill="#F24E1E"/>
<path d="M9.88806 7.5C9.88806 5.10437 11.0143 2.97816 12.7424 1.60437C11.4706 0.604369 9.86621 0 8.11621 0C3.97058 0 0.616211 3.35437 0.616211 7.5C0.616211 11.6456 3.97058 15 8.11621 15C9.86621 15 11.4706 14.3956 12.7424 13.3956C11.0118 12.0413 9.88806 9.89563 9.88806 7.5Z" fill="#FF0000"/>
<path d="M24.8694 7.5C24.8694 11.6456 21.515 15 17.3694 15C15.6194 15 14.015 14.3956 12.7432 13.3956C14.4932 12.0194 15.5975 9.89563 15.5975 7.5C15.5975 5.10437 14.4713 2.97816 12.7432 1.60437C14.0126 0.604369 15.6169 0 17.367 0C21.515 0 24.8694 3.37621 24.8694 7.5Z" fill="#FFA800"/>
</svg>
