<svg width="90" height="23" viewBox="0 0 90 23" fill="none" xmlns="http://www.w3.org/2000/svg">
<path d="M28.8008 18.0089L29.923 15.4025C31.1356 16.3075 32.7465 16.7781 34.3393 16.7781C35.5158 16.7781 36.2579 16.3256 36.2579 15.6378C36.2398 13.7192 29.2171 15.2215 29.1628 10.407C29.1447 7.96353 31.3166 6.08116 34.3936 6.08116C36.2217 6.08116 38.0497 6.53365 39.3529 7.56533L38.3031 10.226C37.1085 9.4658 35.6244 8.92281 34.2126 8.92281C33.2533 8.92281 32.6198 9.37531 32.6198 9.9545C32.6379 11.8369 39.7149 10.8052 39.7873 15.4025C39.7873 17.9003 37.6696 19.6559 34.6289 19.6559C32.4026 19.6559 30.3574 19.131 28.8008 18.0089ZM71.86 14.4613C71.2989 15.4387 70.2491 16.1084 69.0364 16.1084C67.2446 16.1084 65.7966 14.6604 65.7966 12.8685C65.7966 11.0767 67.2446 9.6287 69.0364 9.6287C70.2491 9.6287 71.2989 10.2984 71.86 11.2758L74.955 9.5563C73.7967 7.49294 71.5704 6.08116 69.0364 6.08116C65.2898 6.08116 62.249 9.12191 62.249 12.8685C62.249 16.6152 65.2898 19.6559 69.0364 19.6559C71.5885 19.6559 73.7967 18.2623 74.955 16.1808L71.86 14.4613ZM41.3439 0.452148H45.2172V19.4025H41.3439V0.452148ZM76.4754 0.452148V19.4025H80.3488V13.7192L84.9461 19.4025H89.9054L84.0592 12.6514L89.471 6.35265H84.7289L80.3488 11.5835V0.452148H76.4754ZM56.7286 14.4975C56.1675 15.4206 55.0092 16.1084 53.706 16.1084C51.9141 16.1084 50.4661 14.6604 50.4661 12.8685C50.4661 11.0767 51.9141 9.6287 53.706 9.6287C55.0092 9.6287 56.1675 10.3527 56.7286 11.2939V14.4975ZM56.7286 6.35265V7.89113C56.0951 6.82325 54.5205 6.08116 52.8734 6.08116C49.4707 6.08116 46.7919 9.08571 46.7919 12.8504C46.7919 16.6152 49.4707 19.6559 52.8734 19.6559C54.5205 19.6559 56.0951 18.9139 56.7286 17.846V19.3844H60.602V6.35265H56.7286Z" fill="white"/>
<path d="M4.8545 14.48C4.8545 15.8013 3.78661 16.8691 2.46533 16.8691C1.14405 16.8691 0.0761719 15.8013 0.0761719 14.48C0.0761719 13.1587 1.14405 12.0908 2.46533 12.0908H4.8545V14.48ZM6.04908 14.48C6.04908 13.1587 7.11696 12.0908 8.43824 12.0908C9.75952 12.0908 10.8274 13.1587 10.8274 14.48V20.4529C10.8274 21.7742 9.75952 22.842 8.43824 22.842C7.11696 22.842 6.04908 21.7742 6.04908 20.4529V14.48Z" fill="#E01E5A"/>
<path d="M8.43876 4.88672C7.11748 4.88672 6.0496 3.81884 6.0496 2.49756C6.0496 1.17628 7.11748 0.108398 8.43876 0.108398C9.76004 0.108398 10.8279 1.17628 10.8279 2.49756V4.88672H8.43876ZM8.43876 6.0994C9.76004 6.0994 10.8279 7.16729 10.8279 8.48856C10.8279 9.80984 9.76004 10.8777 8.43876 10.8777H2.44776C1.12648 10.8777 0.0585938 9.80984 0.0585938 8.48856C0.0585938 7.16729 1.12648 6.0994 2.44776 6.0994H8.43876Z" fill="#03A9F4"/>
<path d="M18.0139 8.48856C18.0139 7.16729 19.0818 6.0994 20.4031 6.0994C21.7244 6.0994 22.7922 7.16729 22.7922 8.48856C22.7922 9.80984 21.7244 10.8777 20.4031 10.8777H18.0139V8.48856ZM16.8193 8.48856C16.8193 9.80984 15.7515 10.8777 14.4302 10.8777C13.1089 10.8777 12.041 9.80984 12.041 8.48856V2.49756C12.041 1.17628 13.1089 0.108398 14.4302 0.108398C15.7515 0.108398 16.8193 1.17628 16.8193 2.49756V8.48856Z" fill="#2EB67D"/>
<path d="M14.4302 18.0637C15.7515 18.0637 16.8193 19.1316 16.8193 20.4529C16.8193 21.7742 15.7515 22.842 14.4302 22.842C13.1089 22.842 12.041 21.7742 12.041 20.4529V18.0637H14.4302ZM14.4302 16.8691C13.1089 16.8691 12.041 15.8013 12.041 14.48C12.041 13.1587 13.1089 12.0908 14.4302 12.0908H20.4212C21.7425 12.0908 22.8103 13.1587 22.8103 14.48C22.8103 15.8013 21.7425 16.8691 20.4212 16.8691H14.4302Z" fill="#FFA800"/>
</svg>
