<svg width="118" height="31" viewBox="0 0 118 31" fill="none" xmlns="http://www.w3.org/2000/svg">
<path d="M37.793 23.576L39.262 20.1639C40.8496 21.3487 42.9584 21.9647 45.0436 21.9647C46.5837 21.9647 47.5552 21.3724 47.5552 20.472C47.5315 17.9603 38.3379 19.927 38.2669 13.6242C38.2432 10.4254 41.0865 7.96112 45.1147 7.96112C47.5078 7.96112 49.901 8.55349 51.607 9.90409L50.2327 13.3872C48.6689 12.392 46.7259 11.6812 44.8777 11.6812C43.6219 11.6812 42.7926 12.2736 42.7926 13.0318C42.8163 15.4961 52.0809 14.1455 52.1757 20.1639C52.1757 23.4338 49.4034 25.7322 45.4227 25.7322C42.5082 25.7322 39.8307 25.0451 37.793 23.576ZM94.1628 18.9318C93.4283 20.2113 92.054 21.088 90.4665 21.088C88.1207 21.088 86.2251 19.1924 86.2251 16.8467C86.2251 14.5009 88.1207 12.6053 90.4665 12.6053C92.054 12.6053 93.4283 13.482 94.1628 14.7615L98.2147 12.5105C96.6982 9.80931 93.7837 7.96112 90.4665 7.96112C85.5616 7.96112 81.5809 11.9418 81.5809 16.8467C81.5809 21.7515 85.5616 25.7322 90.4665 25.7322C93.8074 25.7322 96.6982 23.9077 98.2147 21.1828L94.1628 18.9318ZM54.2135 0.592041H59.2841V25.4005H54.2135V0.592041ZM100.205 0.592041V25.4005H105.276V17.9603L111.294 25.4005H117.787L110.133 16.5623L117.218 8.31654H111.01L105.276 15.1643V0.592041H100.205ZM74.354 18.9792C73.6195 20.1876 72.103 21.088 70.397 21.088C68.0512 21.088 66.1556 19.1924 66.1556 16.8467C66.1556 14.5009 68.0512 12.6053 70.397 12.6053C72.103 12.6053 73.6195 13.5531 74.354 14.7852V18.9792ZM74.354 8.31654V10.3306C73.5247 8.9326 71.4632 7.96112 69.307 7.96112C64.8524 7.96112 61.3456 11.8945 61.3456 16.823C61.3456 21.7515 64.8524 25.7322 69.307 25.7322C71.4632 25.7322 73.5247 24.7607 74.354 23.3627V25.3768H79.4247V8.31654H74.354Z" fill="white"/>
<path d="M6.44488 18.9561C6.44488 20.6858 5.04688 22.0838 3.31716 22.0838C1.58745 22.0838 0.189453 20.6858 0.189453 18.9561C0.189453 17.2264 1.58745 15.8284 3.31716 15.8284H6.44488V18.9561ZM8.00873 18.9561C8.00873 17.2264 9.40672 15.8284 11.1364 15.8284C12.8662 15.8284 14.2642 17.2264 14.2642 18.9561V26.7754C14.2642 28.5051 12.8662 29.9031 11.1364 29.9031C9.40672 29.9031 8.00873 28.5051 8.00873 26.7754V18.9561Z" fill="#E01E5A"/>
<path d="M11.1367 6.39727C9.40698 6.39727 8.00899 4.99928 8.00899 3.26956C8.00899 1.53984 9.40698 0.141846 11.1367 0.141846C12.8664 0.141846 14.2644 1.53984 14.2644 3.26956V6.39727H11.1367ZM11.1367 7.98482C12.8664 7.98482 14.2644 9.38281 14.2644 11.1125C14.2644 12.8422 12.8664 14.2402 11.1367 14.2402H3.29373C1.56401 14.2402 0.166016 12.8422 0.166016 11.1125C0.166016 9.38281 1.56401 7.98482 3.29373 7.98482H11.1367Z" fill="#03A9F4"/>
<path d="M23.6708 11.1128C23.6708 9.38305 25.0688 7.98506 26.7985 7.98506C28.5283 7.98506 29.9263 9.38305 29.9263 11.1128C29.9263 12.8425 28.5283 14.2405 26.7985 14.2405H23.6708V11.1128ZM22.107 11.1128C22.107 12.8425 20.709 14.2405 18.9793 14.2405C17.2496 14.2405 15.8516 12.8425 15.8516 11.1128V3.2698C15.8516 1.54008 17.2496 0.14209 18.9793 0.14209C20.709 0.14209 22.107 1.54008 22.107 3.2698V11.1128Z" fill="#2EB67D"/>
<path d="M18.9793 23.6476C20.709 23.6476 22.107 25.0456 22.107 26.7754C22.107 28.5051 20.709 29.9031 18.9793 29.9031C17.2496 29.9031 15.8516 28.5051 15.8516 26.7754V23.6476H18.9793ZM18.9793 22.0838C17.2496 22.0838 15.8516 20.6858 15.8516 18.9561C15.8516 17.2264 17.2496 15.8284 18.9793 15.8284H26.8222C28.552 15.8284 29.95 17.2264 29.95 18.9561C29.95 20.6858 28.552 22.0838 26.8222 22.0838H18.9793Z" fill="#FFA800"/>
</svg>
