<svg width="18" height="18" viewBox="0 0 18 18" fill="none" xmlns="http://www.w3.org/2000/svg">
<g clip-path="url(#clip0_269_948)">
<path d="M12.7478 0C12.7876 0 12.8274 0 12.8695 0C12.9671 1.20593 12.5068 2.107 11.9474 2.75952C11.3985 3.40754 10.6469 4.03603 9.43117 3.94067C9.35007 2.75201 9.81112 1.91777 10.3698 1.26675C10.8879 0.660032 11.8378 0.120142 12.7478 0Z" fill="white"/>
<path d="M16.4254 12.5517C16.4254 12.5638 16.4254 12.5743 16.4254 12.5855C16.0837 13.6203 15.5964 14.5071 15.0017 15.33C14.4588 16.0772 13.7935 17.0826 12.6056 17.0826C11.5791 17.0826 10.8973 16.4226 9.84534 16.4046C8.73252 16.3865 8.12055 16.9565 7.10309 17.0999C6.98671 17.0999 6.87032 17.0999 6.75618 17.0999C6.00905 16.9917 5.40608 16.4 4.96681 15.8669C3.67153 14.2916 2.6706 12.2566 2.48438 9.65256C2.48438 9.39725 2.48438 9.1427 2.48438 8.8874C2.56322 7.02369 3.46879 5.5084 4.67247 4.77403C5.30772 4.38357 6.181 4.05092 7.1534 4.1996C7.57015 4.26418 7.9959 4.40685 8.36909 4.54801C8.72276 4.68392 9.16504 4.92496 9.58403 4.91219C9.86787 4.90393 10.1502 4.75601 10.4363 4.65164C11.2743 4.34903 12.0958 4.00212 13.1785 4.16506C14.4798 4.36179 15.4034 4.93998 15.9741 5.83203C14.8733 6.53261 14.003 7.58836 14.1517 9.39125C14.2838 11.0289 15.236 11.9871 16.4254 12.5517Z" fill="white"/>
</g>
<defs>
<clipPath id="clip0_269_948">
<rect width="17.1" height="17.1" fill="white" transform="translate(0.898438)"/>
</clipPath>
</defs>
</svg>
