<svg width="1440" height="622" viewBox="0 0 1440 622" fill="none" xmlns="http://www.w3.org/2000/svg">
<path d="M1419.11 759.777C1364.28 737.988 1297.68 716.328 1240.07 699.62C1187.49 684.369 1127.62 664.828 1071.21 669.677C1029.87 673.232 992.737 687.38 966.462 711.519C946.285 730.055 932.451 752.776 910.561 770.309C892.087 785.105 863.381 800.266 838.713 808.786C796.83 823.251 739.955 822.417 694.473 814.198C646.262 805.486 600.898 784.865 555.203 770.236C501.786 753.135 450.488 741.679 393.953 749C358.87 753.542 330.728 770.109 297.386 778.86C258.493 789.068 210.66 787.815 169.453 786.956C103.678 785.584 40.1417 776.127 -23.6934 761.319C-64.1653 751.931 -104.224 738.685 -141.33 722.586C-163.872 712.806 -182.387 702.016 -197.296 685.79C-211.344 670.501 -226.742 654.586 -224.216 635.887" stroke="url(#paint0_linear_442_732)" stroke-opacity="0.25" stroke-width="0.73291" stroke-linecap="round"/>
<path d="M1452.88 738.13C1398.05 716.341 1235.78 663.825 1178.17 647.117C1125.58 631.866 1065.71 612.325 1009.3 617.174C967.959 620.729 930.831 634.877 904.556 659.016C884.378 677.552 870.545 700.273 848.655 717.806C830.181 732.602 801.475 747.763 776.807 756.283C734.923 770.748 678.049 769.914 632.566 761.695C584.355 752.983 538.992 732.362 493.297 717.733C439.879 700.632 388.582 689.176 332.047 696.497C296.964 701.039 268.821 717.607 235.479 726.358C196.586 736.566 148.753 735.312 107.546 734.453C41.7711 733.081 -21.7649 723.624 -85.6 708.816C-126.072 699.428 -166.131 686.182 -203.237 670.083C-225.778 660.303 -244.293 649.513 -259.203 633.287C-273.251 617.998 -288.649 602.083 -286.123 583.384" stroke="url(#paint1_linear_442_732)" stroke-opacity="0.25" stroke-width="0.73291" stroke-linecap="round"/>
<path d="M1464.06 707.83C1409.23 686.042 1178.69 606.271 1121.08 589.563C1068.49 574.313 1008.63 554.771 952.215 559.621C910.87 563.175 873.742 577.324 847.467 601.462C827.29 619.998 813.456 642.72 791.566 660.252C773.092 675.049 744.386 690.209 719.718 698.729C677.834 713.195 620.96 712.36 575.477 704.141C527.266 695.429 481.903 674.808 436.208 660.179C382.79 643.078 331.493 631.623 274.958 638.943C239.875 643.486 211.732 660.053 178.39 668.804C139.498 679.012 91.6646 677.758 50.4571 676.899C-15.3177 675.528 -78.8537 666.071 -142.689 651.263C-183.161 641.874 -223.219 628.628 -260.326 612.529C-282.867 602.749 -301.382 591.96 -316.291 575.733C-330.339 560.444 -345.737 544.529 -343.211 525.83" stroke="url(#paint2_linear_442_732)" stroke-opacity="0.25" stroke-width="0.73291" stroke-linecap="round"/>
<path d="M1506.81 696.349C1451.98 674.561 1144.42 555.48 1086.81 538.772C1034.22 523.521 974.355 503.98 917.945 508.829C876.6 512.384 839.472 526.532 813.197 550.671C793.019 569.207 779.186 591.928 757.296 609.461C738.822 624.258 710.116 639.418 685.448 647.938C643.564 662.403 586.69 661.569 541.207 653.35C492.996 644.638 447.633 624.017 401.938 609.388C348.52 592.287 297.223 580.832 240.687 588.152C205.605 592.694 177.462 609.262 144.12 618.013C105.227 628.221 57.3944 626.967 16.1869 626.108C-49.588 624.736 -113.124 615.279 -176.959 600.471C-217.431 591.083 -257.49 577.837 -294.596 561.738C-317.137 551.958 -335.652 541.168 -350.562 524.942C-364.61 509.653 -380.008 493.738 -377.482 475.039" stroke="url(#paint3_linear_442_732)" stroke-opacity="0.25" stroke-width="0.73291" stroke-linecap="round"/>
<path d="M1526.44 664.013C1471.62 642.225 1117.27 517.735 1059.66 501.027C1007.08 485.777 947.207 466.235 890.797 471.085C849.452 474.639 812.324 488.788 786.049 512.926C765.871 531.462 752.038 554.184 730.148 571.716C711.674 586.513 682.968 601.674 658.3 610.193C616.416 624.659 559.542 623.824 514.059 615.605C465.848 606.893 420.485 586.272 374.79 571.644C321.372 554.542 270.075 543.087 213.539 550.407C178.456 554.95 150.314 571.517 116.972 580.268C78.0794 590.476 30.2464 589.222 -10.9611 588.363C-76.736 586.992 -140.272 577.535 -204.107 562.727C-244.579 553.338 -284.638 540.093 -321.744 523.993C-344.285 514.213 -362.8 503.424 -377.71 487.197C-391.758 471.908 -407.156 455.993 -404.629 437.294" stroke="url(#paint4_linear_442_732)" stroke-opacity="0.25" stroke-width="0.73291" stroke-linecap="round"/>
<path d="M1546.34 637.779C1491.52 615.991 1055.36 465.232 997.752 448.524C945.167 433.274 885.299 413.732 828.889 418.582C787.545 422.136 750.416 436.285 724.141 460.423C703.963 478.959 690.13 501.68 668.24 519.213C649.766 534.01 621.06 549.17 596.392 557.69C554.508 572.155 497.634 571.321 452.151 563.102C403.94 554.39 358.576 533.769 312.882 519.14C259.464 502.039 208.167 490.584 151.631 497.904C116.548 502.446 88.4057 519.014 55.0639 527.765C16.1712 537.973 -31.6618 536.719 -72.8693 535.86C-138.644 534.488 -202.18 525.032 -266.015 510.224C-306.486 500.835 -346.545 487.589 -383.652 471.49C-406.193 461.71 -424.708 450.92 -439.617 434.694C-453.665 419.405 -469.063 403.49 -466.537 384.791" stroke="url(#paint5_linear_442_732)" stroke-opacity="0.25" stroke-width="0.73291" stroke-linecap="round"/>
<path d="M1474.5 572C1419.67 550.212 998.275 407.678 940.665 390.97C888.08 375.719 828.212 356.178 771.802 361.027C730.457 364.582 693.329 378.73 667.053 402.869C646.876 421.405 633.043 444.126 611.152 461.659C592.678 476.455 563.972 491.616 539.304 500.136C497.421 514.601 440.546 513.767 395.064 505.548C346.853 496.836 301.489 476.215 255.794 461.586C202.377 444.485 151.079 433.029 94.544 440.35C59.461 444.892 31.3183 461.459 -2.02354 470.21C-40.9162 480.418 -88.7491 479.165 -129.957 478.306C-195.731 476.934 -259.267 467.477 -323.102 452.669C-363.574 443.281 -403.633 430.035 -440.739 413.936C-463.281 404.156 -481.795 393.366 -496.705 377.14C-510.753 361.851 -526.151 345.936 -523.625 327.237" stroke="url(#paint6_linear_442_732)" stroke-opacity="0.25" stroke-width="0.73291" stroke-linecap="round"/>
<path d="M843.475 364.064C806.818 371.982 771.181 381.449 735.694 393.776C703.303 405.028 665.358 416.426 641.006 442.235C623.157 461.151 612.499 485.235 611.879 511.429C611.402 531.543 615.983 551.82 614.204 571.973C612.702 588.981 606.53 610.336 599.017 625.767C586.26 651.967 558.902 674.28 533.323 687.233C506.209 700.962 474.608 705.833 445.786 714.719C412.094 725.107 382.173 738.299 358.972 765.758C344.575 782.798 339.359 804.838 327.849 823.904C314.424 846.145 291.144 864.554 271.197 880.555C239.359 906.097 204.618 925.502 167.113 941.561C143.335 951.743 117.862 959.26 92.3892 963.742C76.9151 966.465 62.854 966.915 47.8367 962.396C33.6872 958.137 18.591 954.016 10.6236 940.888" stroke="url(#paint7_linear_442_732)" stroke-opacity="0.25" stroke-width="0.5966" stroke-linecap="round"/>
<defs>
<linearGradient id="paint0_linear_442_732" x1="671.407" y1="531.044" x2="552.199" y2="933.281" gradientUnits="userSpaceOnUse">
<stop stop-color="white"/>
<stop offset="0.885417" stop-color="white" stop-opacity="0"/>
</linearGradient>
<linearGradient id="paint1_linear_442_732" x1="657.819" y1="492.883" x2="538.616" y2="895.1" gradientUnits="userSpaceOnUse">
<stop stop-color="white"/>
<stop offset="0.885417" stop-color="white" stop-opacity="0"/>
</linearGradient>
<linearGradient id="paint2_linear_442_732" x1="636.236" y1="445.865" x2="517.037" y2="848.07" gradientUnits="userSpaceOnUse">
<stop stop-color="white"/>
<stop offset="0.885417" stop-color="white" stop-opacity="0"/>
</linearGradient>
<linearGradient id="paint3_linear_442_732" x1="643.706" y1="407.449" x2="524.508" y2="809.649" gradientUnits="userSpaceOnUse">
<stop stop-color="white"/>
<stop offset="0.885417" stop-color="white" stop-opacity="0"/>
</linearGradient>
<linearGradient id="paint4_linear_442_732" x1="638.291" y1="376.144" x2="519.093" y2="778.346" gradientUnits="userSpaceOnUse">
<stop stop-color="white"/>
<stop offset="0.885417" stop-color="white" stop-opacity="0"/>
</linearGradient>
<linearGradient id="paint5_linear_442_732" x1="617.684" y1="335.881" x2="498.486" y2="738.083" gradientUnits="userSpaceOnUse">
<stop stop-color="white"/>
<stop offset="0.885417" stop-color="white" stop-opacity="0"/>
</linearGradient>
<linearGradient id="paint6_linear_442_732" x1="552.465" y1="275.916" x2="433.266" y2="678.118" gradientUnits="userSpaceOnUse">
<stop stop-color="white"/>
<stop offset="0.885417" stop-color="white" stop-opacity="0"/>
</linearGradient>
<linearGradient id="paint7_linear_442_732" x1="380.197" y1="514.262" x2="488.473" y2="833.674" gradientUnits="userSpaceOnUse">
<stop stop-color="white"/>
<stop offset="0.885417" stop-color="white" stop-opacity="0"/>
</linearGradient>
</defs>
</svg>
