<svg width="163" height="40" viewBox="0 0 163 40" fill="none" xmlns="http://www.w3.org/2000/svg">
<path d="M23.0522 3.3335H10.2811L0 13.6146V26.3857L10.2811 36.6668H23.0522L33.3333 26.3857V13.6146L23.0522 3.3335ZM12.0482 26.5463L5.46186 19.96L12.0482 13.3737C14.5382 10.8837 18.6346 10.8837 21.1245 13.3737L27.7108 19.96L21.1245 26.5463C18.6346 29.0363 14.6185 29.0363 12.0482 26.5463Z" fill="#CCFF00"/>
<path fill-rule="evenodd" clip-rule="evenodd" d="M83.618 26.1712C84.2946 27.1137 85.5513 27.6937 86.953 27.6937C90.5538 27.6937 92.7046 25.2045 92.7046 21.4103C92.7046 17.6162 90.5538 15.127 87.0013 15.127C85.4788 15.127 84.2946 15.707 83.618 16.6012V10.0278H80.2588V27.5003H83.618V26.1712ZM89.3938 21.4103C89.3938 23.4403 88.1855 24.7937 86.4213 24.7937C84.6088 24.7937 83.4246 23.4403 83.4246 21.4103C83.4246 19.3562 84.6088 18.0028 86.4213 18.0028C88.1855 18.0028 89.3938 19.3562 89.3938 21.4103Z" fill="white"/>
<path fill-rule="evenodd" clip-rule="evenodd" d="M98.5694 15.127C101.639 15.127 103.886 16.9153 103.886 19.6703V27.5003H100.551V25.8087C100.14 26.9445 98.7869 27.6937 97.1194 27.6937C94.751 27.6937 93.1319 26.1228 93.1319 24.0445C93.1319 21.652 94.9202 20.202 97.5785 20.202H99.6327C100.237 20.202 100.551 19.8153 100.551 19.3078C100.551 18.2928 99.7535 17.592 98.376 17.592C96.9019 17.592 96.1527 18.5103 96.1044 19.5253H93.1077C93.2527 17.0845 95.2344 15.127 98.5694 15.127ZM97.9652 25.2528C99.6085 25.2528 100.551 24.0445 100.551 22.4978V22.3287H98.086C97.071 22.3287 96.346 22.957 96.346 23.8995C96.346 24.697 97.0227 25.2528 97.9652 25.2528Z" fill="white"/>
<path d="M105.419 10.0278V27.5003H108.778V10.0278H105.419Z" fill="white"/>
<path fill-rule="evenodd" clip-rule="evenodd" d="M110.804 10.5837H117.522C120.591 10.5837 122.887 12.1062 122.887 14.9337C122.887 16.5287 121.896 17.737 120.905 18.2687C122.452 18.8728 123.757 20.2262 123.757 22.4495C123.757 25.6637 121.292 27.5003 117.715 27.5003H110.804V10.5837ZM114.38 17.0362H117.256C118.803 17.0362 119.528 16.3837 119.528 15.2478C119.528 14.112 118.803 13.4595 117.184 13.4595H114.38V17.0362ZM114.38 24.3587H117.401C119.407 24.3587 120.301 23.6337 120.301 22.2562C120.301 20.8787 119.407 20.1053 117.401 20.1053H114.38V24.3587Z" fill="white"/>
<path fill-rule="evenodd" clip-rule="evenodd" d="M135.159 19.6703C135.159 16.9153 132.912 15.127 129.843 15.127C126.508 15.127 124.526 17.0845 124.381 19.5253H127.378C127.426 18.5103 128.175 17.592 129.649 17.592C131.027 17.592 131.824 18.2928 131.824 19.3078C131.824 19.8153 131.51 20.202 130.906 20.202H128.852C126.193 20.202 124.405 21.652 124.405 24.0445C124.405 26.1228 126.024 27.6937 128.393 27.6937C130.06 27.6937 131.413 26.9445 131.824 25.8087V27.5003H135.159V19.6703ZM131.824 22.4978C131.824 24.0445 130.882 25.2528 129.238 25.2528C128.296 25.2528 127.619 24.697 127.619 23.8995C127.619 22.957 128.344 22.3287 129.359 22.3287H131.824V22.4978Z" fill="white"/>
<path d="M136.498 27.5003V15.5254H139.882V17.012C140.558 15.8278 141.912 15.127 143.579 15.127C146.334 15.127 148.123 17.1087 148.123 19.912V27.5003H144.739V20.6612C144.739 19.187 143.797 18.1237 142.395 18.1237C140.921 18.1237 139.882 19.2595 139.882 20.8303V27.5003H136.498Z" fill="white"/>
<path d="M154.551 22.3528L158.007 27.5003H162.067L156.823 20.1053L161.472 15.5254H157.218L153.198 19.477V10.0278H149.814V27.5003H153.198V23.682L154.551 22.3528Z" fill="white"/>
<path fill-rule="evenodd" clip-rule="evenodd" d="M78.592 18.8047L74.7211 14.9337H69.8963L66.0254 18.8047V23.6295L69.8963 27.5004H74.7211L78.592 23.6295V18.8047ZM68.4233 21.2023L70.7264 23.5055C71.6085 24.359 72.9813 24.3562 73.8311 23.5064L76.1352 21.2023L73.8311 18.8982C72.98 18.0472 71.5784 18.0472 70.7274 18.8982L68.4233 21.2023Z" fill="white"/>
<path d="M61.0014 10.0278V27.5003H64.3606V10.0278H61.0014Z" fill="white"/>
<path d="M43.3333 19.042C43.3333 24.8178 47.3208 27.6937 51.6467 27.6937C53.8217 27.6937 55.61 26.582 56.1658 24.9145V27.5003H59.38V20.9753C59.38 20.3155 59.1476 19.6993 58.75 19.2198C58.2593 18.628 57.5169 18.2445 56.6492 18.2445H52.0575V20.9753H55.32C55.7308 20.9753 55.9967 21.2412 55.9967 21.652C55.9967 23.2228 53.9183 24.7453 51.8158 24.7453C49.0125 24.7453 46.7892 22.5462 46.7892 19.042C46.7892 15.5378 49.0125 13.5078 51.8883 13.5078C54.0633 13.5078 55.5617 14.692 55.8275 16.5045H59.4283C59.2108 12.8795 56.1658 10.3903 51.9125 10.3903C47.4417 10.3903 43.3333 13.2662 43.3333 19.042Z" fill="white"/>
</svg>
