<svg width="47" height="48" viewBox="0 0 47 48" fill="none" xmlns="http://www.w3.org/2000/svg">
<g clip-path="url(#clip0_80_3213)">
<path d="M2.82799 2.52669L28.8345 0.605804C32.0291 0.331794 32.8497 0.516504 34.8585 1.97679L43.1601 7.825C44.5292 8.8308 44.9851 9.10481 44.9851 10.1999V42.2741C44.9851 44.2843 44.2552 45.4734 41.6998 45.6548L11.4995 47.4841C9.58189 47.5748 8.66868 47.3008 7.66429 46.021L1.551 38.0714C0.45449 36.6083 0 35.5132 0 34.2329V5.72269C0 4.0791 0.72991 2.70858 2.82799 2.52669Z" fill="white"/>
<path fill-rule="evenodd" clip-rule="evenodd" d="M28.8345 0.606274L2.82799 2.52716C0.72991 2.70858 0 4.07957 0 5.72269V34.2329C0 35.5127 0.45449 36.6078 1.551 38.0714L7.66429 46.0205C8.66868 47.3003 9.58189 47.5748 11.4995 47.4836L41.7003 45.6553C44.2538 45.4734 44.9856 44.2843 44.9856 42.2746V10.2004C44.9856 9.16168 44.5753 8.86229 43.3674 7.97587L34.8585 1.97679C32.8502 0.516504 32.0291 0.331794 28.8345 0.605804V0.606274ZM12.1824 9.6754C9.71631 9.8413 9.15701 9.8789 7.75641 8.7401L4.19569 5.90787C3.83379 5.54127 4.01568 5.08396 4.92748 4.99278L29.9282 3.16589C32.0277 2.98259 33.1209 3.71438 33.942 4.35358L38.2298 7.46028C38.4131 7.55287 38.869 8.09948 38.3205 8.09948L12.502 9.65377L12.1824 9.6754ZM9.30741 42.0006V14.7721C9.30741 13.583 9.6726 13.0345 10.7658 12.9424L40.42 11.2062C41.4258 11.1155 41.8803 11.7547 41.8803 12.9419V39.989C41.8803 41.1781 41.697 42.1839 40.0553 42.2746L11.6781 43.9196C10.0364 44.0103 9.30788 43.4637 9.30788 42.0006H9.30741ZM37.3194 16.2319C37.5013 17.0544 37.3194 17.8769 36.4969 17.9709L35.1292 18.2421V38.3454C33.9415 38.9846 32.8483 39.3498 31.9346 39.3498C30.4743 39.3498 30.1096 38.8925 29.0159 37.5229L20.0718 23.4511V37.0656L22.9012 37.7062C22.9012 37.7062 22.9012 39.3512 20.6184 39.3512L14.3251 39.7164C14.1418 39.3498 14.3251 38.4366 14.9629 38.2547L16.6065 37.7988V19.7978L14.3256 19.6131C14.1423 18.7906 14.5982 17.6029 15.8766 17.5108L22.6291 17.0563L31.9351 31.31V18.6999L29.563 18.4273C29.3797 17.4201 30.1096 16.6883 31.0214 16.599L37.3194 16.2319Z" fill="black"/>
</g>
<defs>
<clipPath id="clip0_80_3213">
<rect width="47" height="47" fill="white" transform="translate(0 0.5)"/>
</clipPath>
</defs>
</svg>
