<svg width="42" height="42" viewBox="0 0 42 42" fill="none" xmlns="http://www.w3.org/2000/svg">
<g clip-path="url(#clip0_80_3217)">
<path d="M8.99536 26.4562C8.99536 28.8703 7.04418 30.8215 4.63 30.8215C2.21583 30.8215 0.264648 28.8703 0.264648 26.4562C0.264648 24.042 2.21583 22.0908 4.63 22.0908H8.99536V26.4562ZM11.178 26.4562C11.178 24.042 13.1292 22.0908 15.5434 22.0908C17.9576 22.0908 19.9087 24.042 19.9087 26.4562V37.3696C19.9087 39.7837 17.9576 41.7349 15.5434 41.7349C13.1292 41.7349 11.178 39.7837 11.178 37.3696V26.4562Z" fill="#E01E5A"/>
<path d="M15.5433 8.92895C13.1291 8.92895 11.1779 6.97777 11.1779 4.5636C11.1779 2.14942 13.1291 0.198242 15.5433 0.198242C17.9574 0.198242 19.9086 2.14942 19.9086 4.5636V8.92895H15.5433ZM15.5433 11.1447C17.9574 11.1447 19.9086 13.0959 19.9086 15.5101C19.9086 17.9242 17.9574 19.8754 15.5433 19.8754H4.5968C2.18263 19.8754 0.231445 17.9242 0.231445 15.5101C0.231445 13.0959 2.18263 11.1447 4.5968 11.1447H15.5433Z" fill="#03A9F4"/>
<path d="M33.0374 15.5101C33.0374 13.0959 34.9886 11.1447 37.4028 11.1447C39.8169 11.1447 41.7681 13.0959 41.7681 15.5101C41.7681 17.9242 39.8169 19.8754 37.4028 19.8754H33.0374V15.5101ZM30.8547 15.5101C30.8547 17.9242 28.9035 19.8754 26.4894 19.8754C24.0752 19.8754 22.124 17.9242 22.124 15.5101V4.5636C22.124 2.14942 24.0752 0.198242 26.4894 0.198242C28.9035 0.198242 30.8547 2.14942 30.8547 4.5636V15.5101Z" fill="#2EB67D"/>
<path d="M26.4904 33.0042C28.9045 33.0042 30.8557 34.9554 30.8557 37.3696C30.8557 39.7837 28.9045 41.7349 26.4904 41.7349C24.0762 41.7349 22.125 39.7837 22.125 37.3696V33.0042H26.4904ZM26.4904 30.8215C24.0762 30.8215 22.125 28.8703 22.125 26.4562C22.125 24.042 24.0762 22.0908 26.4904 22.0908H37.4368C39.851 22.0908 41.8022 24.042 41.8022 26.4562C41.8022 28.8703 39.851 30.8215 37.4368 30.8215H26.4904Z" fill="#ECB22E"/>
</g>
<defs>
<clipPath id="clip0_80_3217">
<rect width="42" height="42" fill="white"/>
</clipPath>
</defs>
</svg>
