<svg width="44" height="44" viewBox="0 0 44 44" fill="none" xmlns="http://www.w3.org/2000/svg">
<g clip-path="url(#clip0_80_3224)">
<path d="M21.9991 0.0725098C9.88626 0.0725098 0.0664062 9.8921 0.0664062 22.0049C0.0664062 34.1183 9.88626 43.9371 21.9991 43.9371C34.1132 43.9371 43.932 34.1183 43.932 22.0049C43.932 9.89289 34.1132 0.0735574 21.9988 0.0735574L21.9991 0.0725098ZM32.0573 31.7054C31.6644 32.3497 30.8211 32.5539 30.1768 32.1585C25.0272 29.013 18.5446 28.3006 10.91 30.0449C10.1744 30.2125 9.44103 29.7516 9.27341 29.0156C9.105 28.2797 9.56412 27.5463 10.3016 27.3787C18.6564 25.4699 25.8229 26.2918 31.6042 29.8249C32.2485 30.2204 32.4528 31.0611 32.0573 31.7054ZM34.7418 25.7334C34.2468 26.538 33.194 26.792 32.3899 26.297C26.4944 22.6733 17.5077 21.6239 10.5345 23.7406C9.63012 24.0138 8.67495 23.5041 8.40048 22.6013C8.1281 21.6969 8.63803 20.7436 9.54081 20.4686C17.5061 18.0517 27.4085 19.2225 34.1787 23.3828C34.9828 23.8778 35.2368 24.9304 34.7418 25.7334ZM34.9723 19.5147C27.9035 15.3162 16.2409 14.9301 9.49183 16.9785C8.40807 17.3072 7.26198 16.6953 6.93355 15.6116C6.60512 14.5273 7.21641 13.382 8.30095 13.0525C16.0484 10.7006 28.9275 11.155 37.066 15.9864C38.0429 16.5649 38.3624 17.8239 37.7836 18.7974C37.2074 19.7722 35.945 20.0936 34.9733 19.5147H34.9723Z" fill="#0ACF83"/>
</g>
<defs>
<clipPath id="clip0_80_3224">
<rect width="44" height="44" fill="white"/>
</clipPath>
</defs>
</svg>
