<svg width="37" height="37" viewBox="0 0 37 37" fill="none" xmlns="http://www.w3.org/2000/svg">
<path d="M37 7.02769C35.6241 7.63125 34.1579 8.03131 32.6294 8.22556C34.2019 7.28669 35.4021 5.81131 35.9663 4.033C34.5002 4.90712 32.8814 5.52456 31.1563 5.86913C29.7642 4.38681 27.7801 3.46875 25.6156 3.46875C21.4161 3.46875 18.0352 6.87738 18.0352 11.0561C18.0352 11.6573 18.0861 12.2354 18.2109 12.7858C11.9047 12.4782 6.32469 9.45581 2.57612 4.85163C1.92169 5.98706 1.53781 7.28669 1.53781 8.68575C1.53781 11.3128 2.89062 13.6414 4.90712 14.9896C3.68844 14.9665 2.49287 14.6127 1.48 14.0554C1.48 14.0785 1.48 14.1086 1.48 14.1386C1.48 17.8247 4.10931 20.8865 7.55725 21.5918C6.93981 21.7606 6.26687 21.8416 5.5685 21.8416C5.08287 21.8416 4.59262 21.8138 4.13244 21.7121C5.11525 24.716 7.90413 26.9244 11.2203 26.9961C8.6395 29.0149 5.36269 30.2313 1.81531 30.2313C1.19325 30.2313 0.596625 30.2036 0 30.1273C3.36006 32.2941 7.34219 33.5312 11.6365 33.5312C25.5947 33.5312 33.226 21.9688 33.226 11.9464C33.226 11.6111 33.2144 11.2873 33.1982 10.9659C34.7037 9.8975 35.9686 8.56319 37 7.02769Z" fill="#03A9F4"/>
</svg>
