<svg width="20" height="20" viewBox="0 0 20 20" fill="none" xmlns="http://www.w3.org/2000/svg">
<path d="M7.1136 10.3672C5.52766 10.3672 4.24641 11.6484 4.26985 13.2187C4.28547 14.2266 4.84016 15.1016 5.65657 15.5898C5.37922 15.1641 5.21516 14.6602 5.20735 14.1172C5.18391 12.5469 6.46516 11.2656 8.0511 11.2656C8.3636 11.2656 8.66438 11.3164 8.94563 11.4062V8.26172C8.65266 8.21875 8.35188 8.19531 8.0511 8.19531C8.03547 8.19531 8.02375 8.19531 8.00813 8.19531V10.5078C7.72688 10.418 7.4261 10.3672 7.1136 10.3672Z" fill="#F00044"/>
<path d="M13.9687 0.9375H13.9453H13.1328C13.3672 2.11328 14.0273 3.13672 14.9492 3.83203C14.3438 3.03125 13.9766 2.03125 13.9687 0.9375Z" fill="#F00044"/>
<path d="M18.75 5.72266C18.4414 5.72266 18.1445 5.69141 17.8516 5.63672V7.89062C16.7891 7.89062 15.7578 7.68359 14.7891 7.26953C14.1641 7.00391 13.582 6.66406 13.0469 6.25391L13.0625 13.2031C13.0547 14.7656 12.4375 16.2305 11.3203 17.3359C10.4102 18.2344 9.25781 18.8086 8.00781 18.9922C7.71484 19.0352 7.41406 19.0586 7.11328 19.0586C5.77734 19.0586 4.50391 18.625 3.46875 17.8242C3.58594 17.9648 3.71094 18.1016 3.84766 18.2344C4.97266 19.3438 6.46484 19.957 8.05469 19.957C8.35547 19.957 8.65625 19.9336 8.94922 19.8906C10.1992 19.707 11.3516 19.1328 12.2617 18.2344C13.3789 17.1289 13.9961 15.6641 14.0039 14.1016L13.9453 7.15234C14.4766 7.5625 15.0586 7.90625 15.6875 8.16797C16.6602 8.57812 17.6914 8.78906 18.75 8.78906" fill="#F00044"/>
<path d="M3.83596 9.92578C4.94924 8.82031 6.42971 8.20703 8.00783 8.19531V7.36328C7.71486 7.32031 7.41408 7.29688 7.1133 7.29688C5.51955 7.29688 4.02346 7.91016 2.89846 9.02734C1.79299 10.125 1.16017 11.625 1.16408 13.1836C1.16408 14.7539 1.78517 16.2266 2.90627 17.3398C3.08596 17.5156 3.26955 17.6797 3.46486 17.8281C2.58205 16.7773 2.10158 15.4648 2.09767 14.082C2.10158 12.5234 2.73049 11.0234 3.83596 9.92578Z" fill="#08FFF9"/>
<path d="M17.8516 5.63672V4.80078H17.8438C16.7578 4.80078 15.7578 4.44141 14.9531 3.83203C15.6523 4.75391 16.6758 5.41016 17.8516 5.63672Z" fill="#08FFF9"/>
<path d="M7.89062 16.8828C8.26172 16.9023 8.61719 16.8516 8.94531 16.7461C10.0781 16.375 10.8945 15.3203 10.8945 14.0781L10.8984 9.42969V0.9375H13.1328C13.0742 0.644531 13.043 0.347656 13.0391 0.0390625H9.96094V8.52734L9.95703 13.1758C9.95703 14.418 9.14062 15.4727 8.00781 15.8438C7.67969 15.9531 7.32422 16.0039 6.95312 15.9805C6.48047 15.9531 6.03906 15.8125 5.65625 15.5859C6.13672 16.3281 6.95703 16.832 7.89062 16.8828Z" fill="#08FFF9"/>
<path d="M8.00783 18.9922C9.25783 18.8086 10.4102 18.2344 11.3203 17.3359C12.4375 16.2305 13.0547 14.7656 13.0625 13.2031L13.0469 6.25391C13.5781 6.66406 14.1602 7.00781 14.7891 7.26953C15.7617 7.67969 16.793 7.89062 17.8516 7.89062V5.63672C16.6758 5.41016 15.6524 4.75391 14.9531 3.83203C14.0313 3.13672 13.3672 2.11328 13.1367 0.9375H10.8985V9.42578L10.8945 14.0742C10.8945 15.3164 10.0781 16.3711 8.94533 16.7422C8.61721 16.8516 8.26174 16.9023 7.89064 16.8789C6.95314 16.8281 6.13674 16.3242 5.65627 15.5859C4.83986 15.1016 4.28517 14.2227 4.26955 13.2148C4.24611 11.6445 5.52736 10.3633 7.1133 10.3633C7.4258 10.3633 7.72658 10.4141 8.00783 10.5039V8.19141C6.42971 8.20312 4.94924 8.81641 3.83596 9.92188C2.73049 11.0195 2.09767 12.5195 2.10158 14.0742C2.10158 15.457 2.58205 16.7695 3.46877 17.8203C4.50783 18.6211 5.77736 19.0547 7.1133 19.0547C7.41408 19.0586 7.71486 19.0352 8.00783 18.9922Z" fill="black"/>
</svg>
