<svg width="25" height="22" viewBox="0 0 25 22" fill="none" xmlns="http://www.w3.org/2000/svg">
<path d="M24.766 3.32102C23.845 3.72501 22.8636 3.99279 21.8405 4.12282C22.893 3.49438 23.6964 2.50684 24.0741 1.31652C23.0927 1.90162 22.0092 2.3149 20.8545 2.54553C19.9227 1.55335 18.5946 0.938843 17.1458 0.938843C14.3348 0.938843 12.0719 3.22041 12.0719 6.01741C12.0719 6.41986 12.1059 6.80683 12.1895 7.17522C7.96845 6.96935 4.23343 4.94628 1.72433 1.86447C1.28628 2.62448 1.02934 3.49438 1.02934 4.43084C1.02934 6.18923 1.93484 7.74793 3.28458 8.65034C2.46886 8.63486 1.66861 8.39804 0.990638 8.025C0.990638 8.04048 0.990638 8.0606 0.990638 8.08073C0.990638 10.548 2.75057 12.5974 5.05845 13.0695C4.64516 13.1825 4.19473 13.2367 3.72728 13.2367C3.40222 13.2367 3.07407 13.2181 2.76605 13.15C3.42389 15.1607 5.29063 16.6389 7.51028 16.6869C5.78285 18.0382 3.58952 18.8524 1.21508 18.8524C0.798702 18.8524 0.399351 18.8338 0 18.7827C2.24906 20.2331 4.91449 21.0612 7.78889 21.0612C17.1319 21.0612 22.2398 13.3218 22.2398 6.61334C22.2398 6.3889 22.2321 6.1722 22.2213 5.95705C23.2289 5.24193 24.0756 4.34881 24.766 3.32102Z" fill="white"/>
</svg>
