<svg width="24" height="24" viewBox="0 0 24 24" fill="none" xmlns="http://www.w3.org/2000/svg">
<g clip-path="url(#clip0_206_1373)">
<path d="M23.9198 7.1499C23.8626 5.89769 23.6637 5.04255 23.3729 4.29438C23.0776 3.50942 22.6145 2.79841 22.016 2.21073C21.4285 1.61227 20.7173 1.14897 19.9324 0.853513C19.184 0.562899 18.3291 0.364191 17.0769 0.307289C15.8223 0.249848 15.4215 0.236206 12.2267 0.236206C9.03195 0.236206 8.63112 0.249848 7.37658 0.30693C6.12438 0.364191 5.26941 0.563079 4.52107 0.853872C3.73611 1.14915 3.0251 1.61227 2.43741 2.21073C1.83895 2.79824 1.37566 3.50924 1.0802 4.2942C0.789584 5.04255 0.590875 5.89769 0.533973 7.14972C0.476533 8.40443 0.462891 8.80508 0.462891 11.9999C0.462891 15.1948 0.476533 15.5956 0.533973 16.8502C0.591055 18.1022 0.789943 18.9573 1.08074 19.7057C1.37602 20.4905 1.83913 21.2017 2.43759 21.7892C3.0251 22.3876 3.73629 22.8507 4.52125 23.146C5.26941 23.437 6.12456 23.6357 7.37676 23.693C8.63148 23.7502 9.03213 23.7637 12.2269 23.7637C15.4217 23.7637 15.8225 23.7502 17.077 23.693C18.3292 23.6357 19.1842 23.437 19.9326 23.146C21.5127 22.535 22.7619 21.2858 23.3729 19.7057C23.6639 18.9573 23.8626 18.1022 23.9198 16.8502C23.9769 15.5955 23.9906 15.1948 23.9906 12C23.9906 8.80508 23.9769 8.40444 23.9198 7.1499ZM21.8022 16.7538C21.75 17.9008 21.5583 18.5237 21.3973 18.9381C21.0015 19.9642 20.1907 20.775 19.1646 21.1708C18.7502 21.3318 18.1273 21.5235 16.9803 21.5757C15.7401 21.6325 15.368 21.6443 12.2267 21.6443C9.08526 21.6443 8.71333 21.6325 7.47297 21.5757C6.32614 21.5235 5.70327 21.3318 5.28862 21.1708C4.77776 20.9821 4.31554 20.6815 3.93607 20.2907C3.5453 19.9112 3.24463 19.4492 3.05597 18.9381C2.89496 18.5237 2.70325 17.9008 2.65102 16.7538C2.59447 15.5134 2.58245 15.1413 2.58245 12.0002C2.58245 8.85893 2.59447 8.48701 2.65102 7.24647C2.70343 6.09945 2.89496 5.47658 3.05597 5.06211C3.24463 4.55107 3.54548 4.08885 3.93607 3.70939C4.31554 3.31861 4.77775 3.01795 5.2888 2.82947C5.70327 2.66828 6.32614 2.47675 7.47315 2.42433C8.71351 2.36779 9.08562 2.35576 12.2267 2.35576C15.3678 2.35576 15.7398 2.36779 16.9803 2.42451C18.1273 2.47675 18.75 2.66846 19.1646 2.82947C19.6755 3.01812 20.1377 3.31879 20.5172 3.70939C20.908 4.08885 21.2086 4.55107 21.3971 5.06211C21.5583 5.47658 21.75 6.09945 21.8022 7.24647C21.8588 8.48683 21.8708 8.85893 21.8708 12C21.8708 15.1413 21.859 15.5132 21.8022 16.7538Z" fill="white"/>
<path d="M12.2263 5.9585C8.8901 5.9585 6.18555 8.66323 6.18555 11.9994C6.18555 15.3357 8.8901 18.0402 12.2263 18.0402C15.5627 18.0402 18.2673 15.3357 18.2673 11.9994C18.2673 8.66323 15.5627 5.9585 12.2263 5.9585ZM12.2263 15.9207C10.0608 15.9205 8.3051 14.165 8.30528 11.9993C8.30528 9.83376 10.0608 8.07805 12.2265 8.07805C14.3922 8.07823 16.1477 9.83376 16.1477 11.9993C16.1477 14.165 14.392 15.9207 12.2263 15.9207Z" fill="white"/>
<path d="M19.9191 5.72074C19.9191 6.50032 19.2871 7.13234 18.5075 7.13234C17.7277 7.13234 17.0957 6.50032 17.0957 5.72074C17.0957 4.94099 17.7277 4.30896 18.5075 4.30896C19.2871 4.30896 19.9191 4.94099 19.9191 5.72074Z" fill="white"/>
</g>
<defs>
<clipPath id="clip0_206_1373">
<rect width="23.5277" height="23.5277" fill="white" transform="translate(0.462891 0.236328)"/>
</clipPath>
</defs>
</svg>
