<svg width="19" height="20" viewBox="0 0 19 20" fill="none" xmlns="http://www.w3.org/2000/svg">
<g clip-path="url(#clip0_206_824)">
<path d="M18.9429 6.08322C18.8966 5.07199 18.736 4.38141 18.5012 3.77722C18.2627 3.14332 17.8887 2.56914 17.4055 2.09454C16.931 1.61125 16.3567 1.23711 15.7228 0.998512C15.1184 0.763824 14.428 0.603355 13.4168 0.557404C12.4037 0.511017 12.08 0.5 9.5 0.5C6.92003 0.5 6.59634 0.511017 5.58322 0.557114C4.57199 0.603355 3.88155 0.763969 3.27722 0.998802C2.64332 1.23726 2.06914 1.61125 1.59454 2.09454C1.11125 2.56899 0.737114 3.14317 0.498512 3.77708C0.263824 4.38141 0.103355 5.07199 0.0574036 6.08308C0.0110168 7.09634 0 7.41988 0 9.99986C0 12.58 0.0110168 12.9037 0.0574036 13.9168C0.1035 14.9279 0.264114 15.6184 0.498947 16.2228C0.737404 16.8565 1.1114 17.4309 1.59469 17.9053C2.06914 18.3886 2.64346 18.7626 3.27737 19.0011C3.88155 19.236 4.57214 19.3965 5.58337 19.4427C6.59663 19.489 6.92017 19.4999 9.50014 19.4999C12.0801 19.4999 12.4038 19.489 13.4169 19.4427C14.4282 19.3965 15.1186 19.236 15.7229 19.0011C16.999 18.5076 18.0078 17.4988 18.5012 16.2228C18.7362 15.6184 18.8966 14.9279 18.9429 13.9168C18.989 12.9035 19 12.58 19 10C19 7.41988 18.989 7.09634 18.9429 6.08322ZM17.2328 13.8389C17.1906 14.7652 17.0358 15.2682 16.9058 15.6029C16.5862 16.4315 15.9314 17.0863 15.1028 17.4059C14.7681 17.536 14.2651 17.6908 13.3388 17.733C12.3373 17.7788 12.0368 17.7883 9.5 17.7883C6.96308 17.7883 6.66273 17.7788 5.66106 17.733C4.73492 17.6908 4.23192 17.536 3.89706 17.4059C3.48451 17.2536 3.11124 17.0108 2.8048 16.6952C2.48923 16.3888 2.24642 16.0156 2.09407 15.6029C1.96404 15.2682 1.80923 14.7652 1.76704 13.8389C1.72138 12.8373 1.71167 12.5368 1.71167 10.0001C1.71167 7.46337 1.72138 7.16302 1.76704 6.16121C1.80937 5.23492 1.96404 4.73192 2.09407 4.39721C2.24642 3.98451 2.48937 3.61124 2.8048 3.3048C3.11124 2.98923 3.48451 2.74642 3.89721 2.59422C4.23192 2.46404 4.73492 2.30937 5.66121 2.26704C6.66287 2.22138 6.96337 2.21167 9.5 2.21167H9.49986C12.0365 2.21167 12.337 2.22138 13.3388 2.26719C14.2651 2.30937 14.7679 2.46419 15.1028 2.59422C15.5153 2.74657 15.8886 2.98937 16.1951 3.3048C16.5106 3.61124 16.7534 3.98451 16.9056 4.39721C17.0358 4.73192 17.1906 5.23492 17.2328 6.16121C17.2785 7.16287 17.2882 7.46337 17.2882 10C17.2882 12.5368 17.2786 12.8371 17.2328 13.8389Z" fill="url(#paint0_linear_206_824)"/>
<path d="M9.49938 5.12109C6.80518 5.12109 4.62109 7.30533 4.62109 9.99953C4.62109 12.6937 6.80518 14.8778 9.49938 14.8778C12.1937 14.8778 14.3778 12.6937 14.3778 9.99953C14.3778 7.30533 12.1937 5.12109 9.49938 5.12109ZM9.49938 13.1661C7.7506 13.166 6.33276 11.7483 6.33291 9.99938C6.33291 8.2506 7.7506 6.83276 9.49953 6.83276C11.2485 6.83291 12.6661 8.2506 12.6661 9.99938C12.6661 11.7483 11.2483 13.1661 9.49938 13.1661Z" fill="url(#paint1_linear_206_824)"/>
<path d="M15.7117 4.92916C15.7117 5.55872 15.2013 6.06911 14.5717 6.06911C13.942 6.06911 13.4316 5.55872 13.4316 4.92916C13.4316 4.29946 13.942 3.78906 14.5717 3.78906C15.2013 3.78906 15.7117 4.29946 15.7117 4.92916Z" fill="url(#paint2_linear_206_824)"/>
</g>
<defs>
<linearGradient id="paint0_linear_206_824" x1="1.59445" y1="17.9054" x2="17.4055" y2="2.09429" gradientUnits="userSpaceOnUse">
<stop stop-color="#FFD600"/>
<stop offset="0.5" stop-color="#FF0100"/>
<stop offset="1" stop-color="#D800B9"/>
</linearGradient>
<linearGradient id="paint1_linear_206_824" x1="6.04995" y1="13.449" x2="12.949" y2="6.54995" gradientUnits="userSpaceOnUse">
<stop stop-color="#FF6400"/>
<stop offset="0.5" stop-color="#FF0100"/>
<stop offset="1" stop-color="#FD0056"/>
</linearGradient>
<linearGradient id="paint2_linear_206_824" x1="13.7656" y1="5.73518" x2="15.3778" y2="4.12301" gradientUnits="userSpaceOnUse">
<stop stop-color="#F30072"/>
<stop offset="1" stop-color="#E50097"/>
</linearGradient>
<clipPath id="clip0_206_824">
<rect width="19" height="19" fill="white" transform="translate(0 0.5)"/>
</clipPath>
</defs>
</svg>
