<svg width="29" height="28" viewBox="0 0 29 28" fill="none" xmlns="http://www.w3.org/2000/svg">
<g clip-path="url(#clip0_206_1359)">
<path d="M9.78963 4.37894C9.78963 4.9453 9.62168 5.49894 9.30703 5.96986C8.99238 6.44077 8.54515 6.8078 8.0219 7.02453C7.49866 7.24127 6.92289 7.29798 6.36741 7.18749C5.81193 7.07699 5.3017 6.80427 4.90122 6.40379C4.50074 6.00331 4.22802 5.49308 4.11752 4.9376C4.00703 4.38212 4.06374 3.80635 4.28048 3.28311C4.49721 2.75986 4.86424 2.31263 5.33515 1.99798C5.80607 1.68333 6.35971 1.51538 6.92607 1.51538C7.68553 1.51538 8.41389 1.81708 8.95091 2.3541C9.48793 2.89112 9.78963 3.61948 9.78963 4.37894Z" fill="white"/>
<path d="M9.13974 9.15206V21.8033C9.14025 21.8966 9.1223 21.9891 9.08693 22.0755C9.05156 22.1619 8.99947 22.2404 8.93366 22.3066C8.86784 22.3727 8.78959 22.4253 8.70341 22.4611C8.61723 22.4969 8.52482 22.5154 8.43149 22.5154H5.41329C5.31996 22.5156 5.2275 22.4974 5.14123 22.4618C5.05495 22.4262 4.97656 22.3739 4.91057 22.3079C4.84457 22.2419 4.79227 22.1635 4.75667 22.0773C4.72107 21.991 4.70288 21.8985 4.70313 21.8052V9.15206C4.70313 8.96371 4.77795 8.78308 4.91113 8.6499C5.04431 8.51671 5.22494 8.44189 5.41329 8.44189H8.43149C8.6195 8.4424 8.79965 8.51744 8.93242 8.65057C9.06519 8.7837 9.13974 8.96404 9.13974 9.15206Z" fill="white"/>
<path d="M24.9162 15.7379V21.8621C24.9165 21.9479 24.8998 22.033 24.867 22.1123C24.8343 22.1916 24.7862 22.2637 24.7256 22.3244C24.6649 22.385 24.5928 22.4331 24.5135 22.4658C24.4342 22.4986 24.3492 22.5153 24.2633 22.515H21.018C20.9322 22.5153 20.8471 22.4986 20.7678 22.4658C20.6885 22.4331 20.6164 22.385 20.5557 22.3244C20.4951 22.2637 20.447 22.1916 20.4143 22.1123C20.3815 22.033 20.3648 21.9479 20.3651 21.8621V15.9269C20.3651 15.0411 20.6247 12.0477 18.0494 12.0477C16.0545 12.0477 15.6478 14.0961 15.5677 15.0163V21.8621C15.5677 22.0336 15.5002 22.1983 15.3798 22.3205C15.2594 22.4426 15.0958 22.5125 14.9243 22.515H11.7897C11.704 22.515 11.6192 22.4981 11.5401 22.4653C11.461 22.4325 11.3891 22.3843 11.3287 22.3237C11.2682 22.263 11.2203 22.191 11.1877 22.1118C11.1551 22.0326 11.1384 21.9478 11.1387 21.8621V9.09636C11.1384 9.01071 11.1551 8.92586 11.1877 8.84666C11.2203 8.76746 11.2682 8.69547 11.3287 8.63481C11.3891 8.57416 11.461 8.52604 11.5401 8.49321C11.6192 8.46037 11.704 8.44347 11.7897 8.44347H14.9243C15.0975 8.44347 15.2635 8.51226 15.386 8.6347C15.5084 8.75714 15.5772 8.92321 15.5772 9.09636V10.1998C16.3179 9.08873 17.4156 8.23157 19.758 8.23157C24.9468 8.23157 24.9162 13.0767 24.9162 15.7379Z" fill="white"/>
</g>
<defs>
<clipPath id="clip0_206_1359">
<rect width="27.2426" height="27.2426" fill="white" transform="translate(0.865234 0.378906)"/>
</clipPath>
</defs>
</svg>
