<svg width="24" height="24" viewBox="0 0 24 24" fill="none" xmlns="http://www.w3.org/2000/svg">
<g clip-path="url(#clip0_206_1367)">
<path d="M22.2803 6.13423C20.9375 6.13423 19.6987 5.68941 18.7038 4.93901C17.5628 4.07878 16.743 2.81693 16.4535 1.36253C16.3818 1.00318 16.3432 0.632346 16.3395 0.252319H12.5039V10.7332L12.4993 16.474C12.4993 18.0088 11.4998 19.3102 10.1144 19.7679C9.71228 19.9007 9.27803 19.9636 8.82586 19.9388C8.24869 19.9071 7.70783 19.7329 7.23774 19.4517C6.23736 18.8534 5.5591 17.768 5.54072 16.5264C5.51177 14.5858 7.08058 13.0037 9.01978 13.0037C9.40256 13.0037 9.77018 13.0662 10.1144 13.1797V10.315V9.2852C9.75134 9.23143 9.38188 9.2034 9.00829 9.2034C6.88575 9.2034 4.9006 10.0857 3.48159 11.6752C2.40906 12.8764 1.76572 14.4089 1.66646 16.0159C1.53642 18.1269 2.30888 20.1337 3.80693 21.6142C4.02704 21.8316 4.25818 22.0333 4.49989 22.2194C5.78426 23.2079 7.35446 23.7437 9.00829 23.7437C9.38188 23.7437 9.75134 23.7161 10.1144 23.6623C11.6593 23.4335 13.0847 22.7263 14.2096 21.6142C15.5919 20.2481 16.3556 18.4343 16.3639 16.5039L16.3441 7.93098C17.0036 8.43967 17.7246 8.86059 18.4984 9.18732C19.7019 9.69509 20.978 9.95243 22.2913 9.95197V7.16679V6.13332C22.2922 6.13423 22.2812 6.13423 22.2803 6.13423Z" fill="white"/>
</g>
<defs>
<clipPath id="clip0_206_1367">
<rect width="23.5277" height="23.5277" fill="white" transform="translate(0.208984 0.236328)"/>
</clipPath>
</defs>
</svg>
